<?xml version="1.0" encoding="UTF-8"?>
<svg id="Layer_2" data-name="Layer 2" xmlns="http://www.w3.org/2000/svg" width="1872" height="315.112" viewBox="0 0 1872 315.112">
  <g id="Layer_1-2" data-name="Layer 1">
    <path d="M1313.18,59.548c-2.242,3.842-3.557,14.344-2.13,19.579.925,3.392-3.45,3.513-3.085,5.179.403,1.839,6.01,5.421,8.048,6.674,2.054,1.263,5.025.632,6.127-1.639.848-1.748,1.97-3.586,2.441-5.558,1.924-8.049,3.427-15.983,5.779-23.69,1.216-3.983,1.729-8.185,2.628-12.459,2.748-13.059-2.349-12.691,5.932-21.681,1.829,2.927.908,5.619,2.037,8.247,1.425,3.315,2.213,6.724,2.662,10.347.598,4.833,3.014,10.848-1.525,11.626-6.746,1.157-6.106,10.958-7.657,15.921-1.385,4.432-3.141,8.835-4.218,13.626-2.375,10.567,2.09,11.007-3.251,17.419-2.318,2.783-3.381,6.54-4.238,10.198l-8.423,35.949c-.636,2.715-4.055,16.993-1.99,17.828,1.34.542,4.155-2.602,7.32-3.754,4.422-1.61,5.877,5.809,20.846,4.655,2.304-.178,3.907-.102,6.127,1.047,127.005-8.794,253.436-16.197,380.857-19.562,48.406-1.278,96.493-1.802,144.531-1.387v167H0v-9l75.509-9.661c90.946-11.636,181.59-22.682,272.762-32.589l167.096-18.157,1.953-16.108-.218-12.934c4.801-3.072-.871-4.827,3.066-15.235,1.392-3.68,2.246-7.33,2.368-11.276.079-2.544,1.18-4.923.731-7.315l-45.897,25.724c14.845-14.919,31.255-27.411,48.252-40.208-4.454-6.768,4.2-9.505.295-16.24l-4.335-7.477c-1.935-3.338-1.984-7.137-.929-10.839,3.112-10.924,7.179-11.913,5.39-25.269-.638-4.767-1.138-9.502-3.621-14.433,1.919-.57,2.218.628,3.553.598.25-2.07-.687-3.657-.08-5.677l4.019,1.032c.503-2.546,2.667-2.162,4.455-2.807,3.761-1.356-1.92-9.179,2.272-10.031,5.718,8.866-1.851,13.533.513,21.564,3.778-8.239,6.906-3.153,7.792-11.122.717-6.446,3.225-12.312,8.095-16.456,2.34-1.991,5.263-1.762,7.6.37,5.021,4.582,7.679,11.14,8.334,18.048.265,2.801.443,5.76.978,8.355-5.902,1.328,1.364,3.035,1.01,8.687-.037.586.018,1.231-.572,2.05-.819-.587-1.61-1.188-2.412-.818-3.066,1.413.11,9.174,1.019,12.2l3.366,11.206c2.67,8.889,8.46,16.065,15.715,21.693,10.307,7.996,12.138,8.094,24.107,10.736,14.757,3.257,11.103,16.18,19.616,13.295,2.533-.858,5.008-1.651,7.821-1.407-1.123,2.072-3.094,2.946-4.616,4.514-1.479,1.524-2.249,3.659-3.969,5.019-3.57,2.821-7.132-2.597-8.986-2.121-.412,1.918-1.309,3.526-3.229,3.863-2.089.367-4.059-.303-5.962-.939-3.192-1.067-5.863.535-6.674,3.773-2.683,10.718-16.196-8.545-22.488-9.691.6,6.505,11.349,7.184,7.462,9.808-5.066,3.42-10.013,7.195-13.604,12.234-3.218,4.516-3.018,12.41-5.573,13.868-1.936,1.105-4.495-1.418-6.327-.04-1.46,1.098-.208,3.651-2.818,7.991-2.344,3.897-1.517,4.924-2.445,9.832,9.18-1.266,16.092-4.27,24.746-5.482,2.437-.341,4.597-1.443,6.122-3.361l5.746-7.224c3.36-4.224,8.561-5.848,13.989-5.28,5.337.558,10.15-.901,14.815-3.361,10.025-5.287,13.624-.226,17.997-6.06,3.832-5.113,8.145,2.015,14.253,1.343,5.934-.652,2.204-4.92,3.45-14.547.424-3.272,2.079-5.273,4.746-6.966,1.285-.816,1.493-3.042,1.842-4.456.547-2.215,1.831-4.029,2.092-6.186.233-1.923-1.26-3.52-1.951-5.167-.819-1.953-.423-3.892-1.546-5.966-.757,4.645-2.483,8.86-4.346,13.322-.774,1.854.403,4.21-.664,5.959-.906,1.485-3.037,1.725-4.347,2.666-2.774,1.993-.908,7.938-4.862,9.422-1.984.745-3.807.274-5.379-1.511,2.396-.475,3.361-2.032,3.502-4.261.724-11.396-5.473-16.818,1.444-25.343,1.063-1.31.466-3.413,1.139-4.897,2.798-6.167,5.52-12.187,9.062-17.981,3.091-5.057,7.654-8.724,12.289-12.245,4.359-3.312,6.144-5.109,11.409-6.044.396-1.987.151-4.108,1.231-5.774.835-1.289,2.636-1.141,3.917-1.661,4.68-1.899,9.23-3.45,13.794-5.007.967-.33,2.375-.131,3.598-.437,4.631-1.155,6.133,2.564,8.546,1.728,3.001-1.041.195-4.11,7.474-4.443,7.686-.352,3.487,2.477,7.639,2.96.729.085.824-.895,1.402-1.332,11.865-8.983,9.158-7.525,22.998-13.47,9.159-3.934,9.024-.417,16.933-4.272.13,1.765-.965,3.483.154,4.511.593.545,3.007-.127,2.866.808l-.499,3.299c-.174,1.149,4.4,1.786,4.099,3.346-.075.389-.563,1.051-1.154,1.183-4.179.933.129,7.057-.999,13.039-1.773,9.407,4.44,7.828,1.704,19.824,8.373-5.169,3.711-8.263,8.088-16.005,1.732-3.064,4.995-4.663,8.487-3.488s3.563-3.776,7.55-8.519c2.018-2.401,9.898-.898,10.703,1.677.87,2.781,1.268,5.956,1.673,9.046.212,1.615-1.653,2.649-2.186,3.872-.933,2.141-1.719,4.044-3.358,5.792-.814.868-1.542,2.448-.884,3.624,2.509,4.483.573,21.466.419,27.747-.103,4.22,6.204,11.785,7.184,25.974.066.956-2.441.255-2.748-.714-.207-.652-1.221-2.285-1.958-1.787l-6.316,4.266-3.213.924-1.999,6.16c1.728,2.147,15.732-1.492,18.597-2.242,9.703-2.542,13.392,1.286,15.003-3.772l1.86-5.84c.267-.838,0-1.692-.569-2.143-.509-.403-1.268-.275-1.991.105-5.33,2.807-3.657,5.256-6.703,5.131-.011,0-5.739-4.313-4.221-6.584.721-1.079,3.124-1.033,3.937-2.497l10.142-18.277c1.933-3.483,3.573-7.234,3.473-11.617l-10.585,10.87c-1.761,1.809-2.759,4.395-5.923,4.75,3.855-11.351,3.621-14.64,12.162-22.947,2.159-2.1,11.865-12.138,11.747-14.067-.059-.976-.573-2.041-1.382-2.879-4.362-4.522-2.814-7.675-4.135-12.946.863-1.092,1.191-2.486,2.495-3.822l1.927,4.323c1.848.214,2.363-1.556,3.709-2.326,1.647-.942,3.943-3.445,1.937-5.167-1.503-1.291-4.512-.553-6.329-1.697-1.001-1.677.876-5.618-.976-6.28-1.7-.608-3.697,5.086-6.898,6.977-1.116-2.375-.018-4.595.51-6.891,1.419-6.173,3.207-11.913,5.865-17.636.68-1.464.412-3.694.03-5.107-1.067-3.947,1.113-9.441,5.37-11.086,9.669-3.737,4.739-14.507,17.257-21.562,1.912.931-1.684,8.87,1.592,9.274,6.199.766,7.372-8.519,9.968-11.522,2.876-3.327,8.789-3.668,11.658-.057,3.236,4.073,3.381,9.584,1.629,14.358-3.433,9.355.097,11.001-6.07,12.533l2.325,2.774c-1.791,8.401,1.654,8.027,4.227,17.938.778,2.999,1.611,6.297,1.365,9.45-.594,7.614-7.575,4.464-8.333,6.99-.38,1.265,2.147,2.256,1.21,4.706-.221.579-.955,1.126-1.73,1.76-5.322,4.357,2.277,17.235,4.202,23.662l5.428,18.115c3.042,10.153-4.749,14.286-5.59,31.626-.09,1.846-1.184,3.601-.482,5.579,2.939.828,5.891,1.744,8.606,3.25,1.416.786,2.688-.289,4.076-.511,1.418-.227,2.517,1.576,3.915,1.277,2.427-.519,4.729-2.012,6.858-2.955,2.704-1.198,2.988-3.21,3.376-5.816,1.633-10.982,3.135-22.312,3.378-33.382-2.808-1.752-4.29-3.177-2.975-6.724.676-1.823-4.163-3.852,3.326-14.456l3.306-4.681c1.127-1.596-1.268-5.188.711-6.981,1.614-1.462,8.053,1.636,7.952-2.835-.164-7.282,5.622-15.765,11.205-14.76,4.054.73,8.656,6.539,7.293,10.502l-3.705,10.769c-.314.914-1.656,1.731-1.202,2.994.948,2.637,2.102,5.161,2.629,7.95,3.796,20.088,4.645,12.327,17.484,19.961,1.523.906,3.069,2.619,2.415,4.512-2.521,7.29-10.75,4.809-11.814,6.208-1.925,2.531-4.332,4.212-6.671,6.246-.51.444.432,7.194,2.148,7.907,1.955.812,4.261.009,6.283.356l9.958,1.709c1.021.175,2.233-.603,2.483-1.24.301-.764.124-1.787-.525-2.399l-3.861-3.642c-4.093-3.86-4.47.015-7.223-2.019-.412-.305-.773-1.14-.689-1.979.242-2.407,2.582-3.632,4.849-3.025,8.406,2.25,14.047-13.832,16.478-20.096.983-2.531.256-5.035-2.029-6.315-1.708-.957-2.432-3.355-1.386-5.046,1.24-2.004,1.036-3.812,1.277-6.043.526-4.873,4.631-8.6,9.049-10.085,1.68-.565,2.141-1.693,2.663-3.146.484-1.348,2.181-1.762,3.258-2.613,3.758-2.97,1.197-6.831,6.254-11.291,1.96-1.729,4.363-2.575,6.769-2.101,2.573.507,3.849,2.57,5.394,4.583,1.723,2.246,2.208,3.851.854,6.526-1.568,3.097-1.716,6.919-2.771,10.272-.691.982-2.003,1.237-2.549,2.291l.906,4.998c.397,2.189-.797,9.545,3.017,11.603-.51,4.051.767,7.738,1.114,11.697.514,5.848,1.248,11.442,2.272,17.198.55,3.092,1.411,5.255,4.568,6.513,4.648,1.852,9.805,2.87,14.937,1.973,1.193-.208,2.369-.588,2.675-1.507,1.196-3.589-2.897-4.28-.574-9.31,1.154-2.498,2.607-5.057,3.037-7.818l1.411-9.062c-2.451,1.699-4.151,3.326-5.982,5.196-4.675,4.774-3.415,8.936-5.864,9.346-4.669.781-4.76-7.618-4.655-7.892.255-.669,1.283-.81,1.977-1.458,4.867-4.548,9.348-9.148,13.54-14.315,1.779-2.193,2.389-6.336-.135-7.98-3.039-1.979-5.719-4.627-7.134-7.889-.338-.778-2.632-2.317-1.015-2.951,5.126-2.011,13.14-.206,13.286-6.075.237-9.535,3.094-18.388,7.083-26.778,1.06-.34,1.646-1.452,2.652-2.283,1.9-1.57,4.557-2.997,5.206-5.599,1.098-4.401,1.781-8.694,3.715-12.775,2.054-4.334,6.294-6.873,10.99-5.54,9.332,2.648,7.615,12.013,7.18,19.298-.792.343-1.878.429-2.021.912-.183.617-.366,1.271-.146,1.931l2.039,6.117c1.311,3.935,4.533,5.886,3.193,8.868-.362.806-1.284,1.567-2.422,2.038-2.92,1.207.639,3.392.105,6.061-.547,2.732-.736,5.443-1.47,8.094-.656,2.369-.792,4.633.668,6.766,3.197,4.669,1.186,6.363,3.041,8.466,1.155,1.309,1.058-2.495,2.892-2.389.669.039,1.978.762,2.078,1.667.214,1.951,1.166,2.616,2.347,3.767,3.259,3.177,7.441,4.453,11.97,2.836.565-.202,1.678-.563,2.428.383-6.716,13.798-8.117,14.145-21.487,21.711-1.478-.473.384-3.509-1.364-5.075-.415-.372-1.743-.846-1.987-.138-.841,2.44.086,5.103.675,7.508,1.831,7.473-.164,14.993,4.561,13.921,6.072-1.378,11.819-1.691,18.081-1.482,1.747.058,4.826-.251,5.212-2.055l4.35-20.349c.909-4.254,3.199-8.152,2.65-12.699-6.684,2.493-4.817,9.438-5.721,10.795-.359.539-1.161.497-1.642.057-.99-.904-.48-5.648-.176-7.108,1.07-5.143,7.402-8.038,9.086-11.245,3.971-7.565,2.289-14.398,5.219-22.804s-1.648-13.992-2.472-18.492c-2.377-12.976,2.342-20.012,5.244-32.712,1.924-8.421-6.371-10.216-5.127-16.805,2.613,1.009,3.644,6.398,6.449,5.492.506-1.433-.861-2.682-1.142-3.924-1.238-5.459-2.341-10.729-4.295-15.74l1.988,1.354c.764-.936.188-2.225,1.302-2.999l4.015,11.272c.546,1.533,1.034,3.07,2.444,4.046l.346-9.203,2.223,2.733,1.693-4.412c1.934,1.884.386,7.819,2.027,7.51,2.679-.504,2.729-5.463,1.74-7.74,3.815,1.374,2.58-3.147,6.681-5.287,2.58-1.346,5.476-.773,8.011.752,6.973,4.196,3.464,16.541-.368,22.622-2.965,4.704,5.521,6.786,3.062,10.603-.418.648-2.254.819-2.174,1.88.979,12.877-.873,18.36.583,31.234.118,1.046.827,4.094,1.062,4.978l1.271,4.785c.385,1.449,1.807,2.371,3.369,1.677,9.308-4.134,11.555-16.228,13.027-25.14.183-1.111.654-2.224-.518-2.679,2.577-6.014,6.584-11.059,12.229-14.804.912-.605,2-.873,2.63-.134.618.724.403,2.273-.44,2.812-3.253,2.08-4.627,5.065-6.014,8.46-1.58,3.868-3.541,7.317-4.115,11.257-.381,2.614-1.382,5.26-2.084,8.033-1.734,6.854-5.329,12.822-10.237,17.866-2.679,2.753-4.616,5.561-5.703,9.273-.378,1.292-2.454,1.692-2.649,3.268,8.326,16.781,1.379,18.46-.038,29.995-.526,4.285-1.987,8.715-2.034,13.096,7.132,6.514,8.766-.513,13.578,2.846,1.285.897,3.581,1.627,4.96.609,1.06-.782.071-2.265-.324-3.14-1.474-3.268-2.77-6.408-4.576-9.446-2.207-3.714-5.44.436-6.701-2.209-.4-.839.024-1.787.878-2.402,8.643-6.233,12.97.02,16.989-5.007,5.405-6.761-1.808-12.393,3.847-18.6,2.414-2.649-1.079-8.889,6.279-16.211,3.21-3.194-1.679-5.801,3.324-8.18,1.937-.921,4.059-.988,5.933-2.131-1.296-1.392-2.222-3.853-.621-5.105,1.746-1.365,3.227-2.576,3.177-5.1-.1-5.043,4.282-5.614,3.715-7.362,4.378.015,4.596-2.54,10.941.136,2.563,2.398,6.788,6.233,4.372,10.395-3.747,6.454-.42,9.9-3.853,11.811-1.285.715-1.907,2.481-1.354,3.944,3.026,8.006-.925,13.56-1.014,21.597-.075,6.736-.021,13.247.376,19.962.338,5.717-.235,11.055-1.905,16.528-.346,1.134-.018,2.628-1.17,3.326-1.105.67-2.471.896-3.36,2.336,4.527.371,6.945,1.897,10.418-.253,6.317-3.91,11.749-8.64,16.882-14.189,13.646-14.75,22.155-33.021,26.159-52.674,1.925-9.446,5.987-9.228,3.643-12.161-1.395-1.745-2.005-4.055-1.264-6.255.545-1.618.333-3.169.605-4.58.648-3.366.72-7.252,3.197-9.941l5.246-5.694c1.306-1.418.956-3.657,2.224-5.183,3.848-1.491,7.488-3.998,8.648-8.247-1.746-.952-7.813-1.66-6.582-4.021s11.399-8.571,14.513-10.768c5.314-3.75,5.766-8.866,3.294-14.508-.827-1.888-2.895-2.226-4.141-3.512-3.756-3.876-5.201-9.35-4.229-14.783l4.041,6.019c2.175,3.24,6.744,4.255,10.504,5.305,2.635.736,3.799,2.918,5.144,5.049,3.318,5.256,6.404,10.392,8.635,16.206,1.952,5.085,6.572,6.831,7.648,9.828,1.462,4.072,5.226,3.587,3.032,5.075-2.613,1.772-4.056-.585-9.626,2.118-4.034,1.958.329,5.457-2.292,9.948ZM1307.135,156.694c1.221-9.689,3.331-18.52,6.222-27.579,1.968-6.168,3.781-12.288,3.303-18.748-8.817,16.349-19.155,41.18-15.806,59.306,3.603-3.733,5.644-7.919,6.281-12.979ZM746.798,175.059c-5.219.515-6.793-1.95-8.91.904-2.615,3.526-3.498,7.502-4.901,11.571-1.457,4.225-3.142,8.302-1.889,12.849,2.004-.05,3.973-.72,5.984-1.154,1.28-.276,2.639.271,3.908-.119l15.62-4.8,9.378-1.823c2.006-.39,4.376.558,6.161-.356,1.755-.898,1.538-3.707,1.803-5.478.709-4.748,1.844-9.127,2.181-13.856.477-6.682,1.511-12.955,3.44-19.437l-3.708.967c-.911-4.038-1.159-8.077-1.32-12.213-.33-8.454-6.265-7.341-6.938-14.117-.266-2.677-2.344-4.41-5.117-4.265-3.02.157-5.64,2.271-6.52,5.241l-3.652,12.324c-.699,2.358-.022,4.876-.015,7.237.008,3.096-2.574,8.763-3.837,13.022-.55,1.856.495,2.508,1.661,3.407,1.718,1.325,3.108,2.932,5.274,3.658,1.4.469,1.95,1.902,1.441,3.335-1.425,4.005-2.811,7.827-3.991,11.952-.77,2.694-.349,5.901-1.739,8.419-4.303,1.67-9.859,5.652-14.124,2.304-.847-.665.101-2.702.766-3.239,1.764-1.426,2.79-3.261,4.361-4.678,1.167-1.052,2.413,1.184,3.2,1.516,2.41.503,3.55-8.148,3.949-10.232.286-1.495-.548-3.127-2.467-2.938ZM1077.609,131.991c-1.488-1.648-3.416-3.668-5.782-2.936-.714.221-.16,2.107.113,2.753l3.96,9.351c2.177-3.575,4.648-5.912,1.708-9.169ZM1139.385,158.438c3.825-.263,2.379-3.048,3.963-8.964,1.66-6.201,2.772-12.685,2.97-18.99-.899-.674-2.295-.581-3.289-.339l-8.857,2.157c-1.394.34-3.336.992-3.904,2.456l-5.296,13.665c-.955,2.465-6.155,15.691-3.161,16.376.46.105,1.437.014,1.981-.508,9.3-8.935,12.194-5.619,15.592-5.852ZM1093.393,139.377c1.049-1.341-.847-4.014-2.092-3.787-1.028.714-.357,2.176-.027,2.914.266.596,1.338,1.872,2.119.873ZM1086.565,142.148c2.003-.205,1.288-4.835-.488-4.591-1.474.203-1.024,4.746.488,4.591ZM857.533,181.493c.513,2.051-.374,2.675-.408,3.958,4.414-1.428,8.578-1.927,13.084-2.16,2.346-.121,4.696-1.672,5.282-4.022.902-3.619,2.086-7.338,1.814-11.179-.151-2.129.112-4.717-.338-6.55-.581-2.37-3.889-.841-5.334-.32-8.079,2.91-.652,9.902-13.653,11.903-2.384.367-5.313.245-6.909,2.028-1.609,1.797-1.591,5.059-1.532,7.248,2.94.852,5.109-.629,7.994-.905ZM1010.743,168.73c.143-.834-3.104-4.633-3.179-4.707-1.061-1.035-3.132.074-3.716,1.329-.849,1.824-1.68,3.705-2.104,5.749.383.964,2.519,1.076,3.486.588,2.776-1.401,5.357-2.049,5.513-2.96ZM1065.21,173.105c-1.418-2.215-3.358-3.339-5.722-3.602-1.812-.201-5.211,2.094-4.133,3.766,2.513,2.313,6.956.794,9.855-.164ZM713.348,205.238c3.101-7.863,9.219-1.718,10.909-6.285,2.343-6.332,1.094-11.121,2.996-15.51,1.268-2.926.845-5.821.862-8.971l.021-3.843c-6.836,3.248-17.115,3.406-23.706,1.26-2.525-.822-1.297,5.676-3.467,11.548-2.618,7.085-1.445,14.651,2.865,20.872l9.521.929ZM939.9,174.96c-.649-1.545-2.402-2.204-3.978-1.678-1.077.359-2.666,2.673-1.502,3.495,1.963.108,3.645-1.33,5.48-1.817ZM686.544,206.197c2.791.728,6.497.608,8.836-.688,1.46-.809-.653-2.802-.945-3.763-2.662-8.757-5.954-9.388-4.067-19.429-1.643-2.338-2.395-5.787-3.789-6.536-.34-.183-1.373-.225-1.606.286-3.781,8.268-8.72,8.429-14.783,16.133-1.346,1.711-1.94,3.78-1.688,5.925l.797,6.793c6.464.499,9.177,3.515,13.262.259,1.379-1.099,2.587.656,3.984,1.021ZM790.462,192.766c.616-1.183,1.16-3.325.156-4.126-2.066-.456-4.56-.66-6.61-.536-1.135,1.02-1.156,3.267-1.145,4.591,2.52.332,4.8.279,7.599.071ZM554.164,207.887c.098-1.263-1.498-2.082-2.056-2.861-1.939-2.707-3.708-5.676-7.242-6.627.744,3.276,2.424,5.777,3.262,8.738.938,3.313,1.235,6.39,2.567,10.29,1.143-2.862,3.177-5.764,3.47-9.54ZM549.399,233.205c-1.222-4.874,2.824-11.3-1.16-11.656-4.492-.401-7.364-3.349-11.716-3.508-2.469-.09-4.507,1.315-4.724,3.748-.768,8.609-2.785,12.436-4.732,21.063,2.588-.572,4.717-1.931,7.089-3.024,5.793-2.67,7.067,2.894,15.243-6.623Z" fill="#0f141f"/>
  </g>
</svg>