<?xml version="1.0" encoding="UTF-8"?>
<svg id="Layer_2" data-name="Layer 2" xmlns="http://www.w3.org/2000/svg" width="1632.081" height="160.948" viewBox="0 0 1632.081 160.948">
  <g id="Layer_1-2" data-name="Layer 1">
    <g id="r1XJIP.tif">
      <g>
        <path d="M.556,148.988c-1.142-.848-.126-2.29-.396-3.383.443-.02.858-.306,1.178-.827l2.366-3.853c-1.232-.653-2.387-.329-3.487-.437l-.107-4.529.099-7.343,3.997.699c2.34.409,5.267-.581,7.615-.082.398.46.024,2.124.784,2.195,2.642.245,5.282.646,7.687-.738-1.328-1.661-3.126-1.791-4.359-3.089-4.378-4.61-6.886-2.881-5.4-7.157,11.615,7.036,9.044,8.779,23.503,8.172,1.502-.063,2.429-1.647,4.033-1.483.57.058.553,1.09.221,1.472-.752.863-4.034,1.447-1.247,1.828l6.779.927c2.741.375,4.426-.547,6.816-.576l29.88-.356c8.71-.104,3.759-2.599,11.238-.563,3.368.917,7.18-.283,10.621.453,1.568.336,2.903-.077,4.388-.001,7.967.405,15.723.154,23.76-.089,2.654-.08,5.457-.515,7.923-.382,3.828.207,6.979.692,10.667-.55,3.286-1.106,13.275.796,10.511.763l20.691.252c5.46.067,11.054.565,16.361-.587,3.142-.682,5.418-.752,8.647.101,2.629.694,13.478.825,15.075.031l7.25-3.603c.433-.215,13.055-8.164,11.248-10.048-4.723,3.156-9.077,4.721-13.804,5.938-2.737.705-4.738.394-7.417-.15-4.024-.818-7.183-2.453-9.854-5.748-1.879-2.318-4.569-4.067-7.016-5.94-.718-.55-3.118-1.023-2.365-2.347,3.615-4.135,9.855-4.036,14.399-2.152.888.368,1.463,2.254,2.671,1.674,1.546-.743,3.328-2.323,5.349-1.508,6.176,2.488,3.571,3.714,6.257,5.628,3.05-.979,6.14-.334,7.599,2.949,1.691-.326,2.844-1.562,4.374-2.33,5.288-2.655,12.731-2.352,13.448-2.609l5.472-1.957c4.162-1.488,12.028,2.491,14.285,2.348.367-.023.268-1.015-.238-1.35-2.33-1.541-4.223-3.385-6.097-5.415-2.267-2.455-5.424-3.46-8.308-4.785-2.693-1.237-4.926-.682-7.746-.562-4.149.177-8.741-1.174-12.798.233-3.713,1.288-7.397.251-11.075-.102-1.909-.183-3.592.306-5.733-.186-1.917-.44-5.214-.636-6.992.155-2.45,1.089-3.839,1.183-6.486.875-5.491-.639-8.392.541-16.357-1.032-8.791-1.737-11.207,2.777-16.835-.031-10.644,3.571-12.629-1.691-24.15.206,1.724-.284-15.09-.746-18.84-.053-6.336,1.17-17.715,1.988-24.338.127,2.962-1.416,6.063-.976,9.179-1.499l5.487-.92c9.169-1.538,9.407,1.016,19.076-.133-2.445-1.001-5.268.348-7.751-.843-.904-.434-1.356-1.211-2.755-1.191l-16.765.245c-8.023.117-9.434-.914-17.758-.224l-5.981.496-8.069.565c3.549-.248-17.829-1.262-12.981-.516l-4.507-.694c-1.811-.279-37.533-.014-40.452.289-.917.095-1.553-.686-1.674-1.283-.177-.873.655-1.533,1.69-1.548l17.411-.251c2.216-.032,3.918-.022,6.202-.043l4.937-.047c3.356-.032,9.567-1.023,12.45-.345,3.355.788,6.633.47,9.993.736,5.081.402,9.894.409,14.971-.046-.307.027,13.054-1.001,11.063-.984l15.375-.131,2.159.99c1.983.909,9.547-.55,12.484-1.543-2.649-4.343,1.632-5.218-.264-6.768-.734-.6-2.332.203-2.919-.456-.717-.805-.207-2.026.126-2.888.356-.924,1.984-.781,2.736-1.631,1.518-1.714,2.866-4.526,5.608-4.329,1.957.141,2.181,2.388,2.042,4.579,3.142-.129,8.895-5.086,11.546.673,1.081,2.348,1.415,5.492.687,7.986-.471,1.613-3.14,3.237-4.156,1.791-.731-1.558,1.22-5.104-.161-6.687-2.475-1.807-5.632.43-7.859,1.505-1.608.777-2.382.979-3.359,2.548-.9,1.445-1.415,4.03.614,4.996,3.184,1.517,6.719-.66,9.807-.557,4.536.15,8.666.49,13.223.06,5.987-.565,29.643.05,31.11-.401,5.632-1.728,10.964-1.193,16.728-1.111,4.18.059,17.121-.609,20.735.446,6.662,1.945,26.544-1.465,26.643,1.988.013.459-.396,1.542-1.19,1.478-4.616-.373-9.448.52-13.96-.512-1.866-.427-2.846-.439-4.884-.397l-16.373.338c-2.5.052-4.947.787-7.474.866-5.87.186-11.814-1.046-17.77.276-2.884.64-5.704-.149-8.462-.021l-10.053.469c-4.269.199-8.427.036-12.717.333-1.655.115-3.235-.487-4.572.888l11.534,2.022c2.22.389,9.942-1.854,18.042-1.646,4.609.118,9.326.473,13.92-.014,3.483-.369,6.646.004,10.07-.027,6.171-.056,12.177-.622,18.39.203,2.157.287,4.293-.133,6.407.271.782.149,1.757-.741,2.693-.734l25.379.192c-1.079-.008,10.107,1.852,10.481,1.75,2.092-.573,3.962-.893,5.793.377,1.346.933,2.597-.776,3.877-.773l29.823.071c1.718.004,2.913,1.028,4.756.669,3.755-.731,7.719-.01,11.594.031l28.531.302c1.26.013,2.719,1.254,2.012,2.297l-26.275.325-6.982-.558c-4.637-.371-8.895.042-13.553-.014l-26.999-.329c-3.328-.041-6.345-.859-9.672-.092,1.1,1.367,1.467,2.609,2.169,3.785,1.032,1.731,2.885,2.722,4.056,4.339,4.28,5.913,6.264,4.179,8.618,7.656-2.039,1.469-11.403-1.098-13.269-2.997-1.093-1.112-2.693-2.267-4.197-1.29.962,1.706,2.919,1.551,3.877,2.616,4.914,5.467,10.782,9.401,17.194,12.738,2.207,1.149,4.118,1.696,6.625,2.164,4.03.753,10.498,3.888,12.91-1.766.812-1.903,2.841-3.482,1.807-5.932-4.911,2.201-5.034-1.323-7.298-1.145-.055.004-4.581,3.713-7.564,2.008-3.243-1.853-2.525-6.612-.815-8.566.49-.56.898-1.011.541-1.634-.962-1.677-3.332,2.251-5.692.123,1.544-.777,2.2-2.494,3.06-3.55,4.132-.56,8.312-.192,12.441-.159,4.189.033,7.34,2.356,17.124,1.151,2.838-.35,4.963-.463,7.708.697,2.527,1.067,6.228,1.352,8.758.301,1.44-.598,2.223-2.681,4.265-1.592-2.808,4.038-7.864,5.63-12.654,4.327-3.696-1.005-8.938,4.161-9.019,6.721-.079,2.479-.073,5.207,2.027,6.631,2.895,1.964,6.69,1.719,9.994,1.017,2.519-.535,4.404-3.627,4.151-4.704-.522-2.224-3.401-.935-3.165-3.055.081-.731.651-1.048,1.463-1.214,2.099-.428,3.108.452,3.94,2.019.864,1.627.578,2.687-.024,4.17-.832,2.048-2.272,2.634-3.882,3.736-2.423,1.658-4.365,2.256-7.528,2.093-2.875-.148-6.275-.039-8.146-2.84-3.454-5.17-.891-9.194,1.675-13.205.782-1.222,2.483-1.469,3.058-3.011-2.441.371-4.757.623-6.95,1.571-1.693,4.082-2.733,8.305-5.039,11.953-1.213,1.92-3.046,3.434-3.039,6.034,3.092-.27,5.996.307,9.006.343,4.303.052,8.467-.975,12.673-.198,3.903.721,7.707.019,11.551.061l12.235.136c2.205.025,3.364-1.328,4.427-3.052l3.597-5.83c.248-.402-.046-1.18-.277-1.327-.713-.453-3.978,2.937-5.951.113-2.781-3.981-5.163,2.94-9.523.424-3.638-2.099-2.551-6.92.429-10.307-1.473-.975-2.738-.058-3.947.827-.445.325-1.08.086-1.423.309-.359.233-1.045-.565-.743-1.156,11.455-6.767,15.496.293,25.649-1.612,7.671-1.439,9.858-2.413,16.366.676,1.398.664,3.44.066,4.905.149,1.634.092,3.767-4.522,5.397-1.571-5.632,6.681-8.226,3.686-15.209,4.73-1.298.342-2.107,1.758-3.324,2.706-2.021,1.574-3.046,5.722-1.877,7.901,1.516,2.827,4.093,3.95,6.582,4.386,2.891.506,5.261-.798,7.615-2.709,1.172-.952,1.467-3.385.383-4.517-.337-.352-1.27-.066-1.393-.355-.249-.583.003-1.079.487-1.547.85-.822,1.871-1.279,3.014-.977.794.21,1.513,1.378,1.615,2.56.475,5.551-6.224,8.398-4.518,9.463,2.039,1.273,3.323-.746,4.188-2.277,1.454-2.574,5.981-10.292,6.455-12.667.255-1.276,1.721-2.997-.065-4.052-.876-.517-2.221.073-3.276-.382.119-2.27,3.391-3.847,5.434-2.705.795.445,1.544,2.129,2.707,1.214,1.682-1.323,3.472-1.997,5.804-1.631l.575-3.589c3.784-.319,2.201-3.924,5.417-2.699.073.028,3.24,4.516,2.7,3.269.321.742.01,1.585-.45,2.757,3.703.339,5.515,3.13,5.359,6.633-.182,4.092-2.764,7.624-7.126,7.978-.9.073-1.837-.552-2.099-1.073-.384-.764-.562-2.214.318-2.686,1.131-.606,2.459.121,3.735-.455,2.09-.944,2.545-4.865.385-6.031-1.81-.977-3.718,1.138-4.482,2.557-1.758,3.267-6.494,9.937-10.691,6.986-.792-.557-1.015-1.695-.712-2.292,1.01-1.993,3.301-.226,5.208-.606.777-.155,2.573-3.829,1.673-5.323-.447-.743-1.37-2.292-2.713-1.952-5.465,1.384-5.287,6.525-6.738,8.36-2.657,3.358-5.199,6.897-6.446,11.238l14.306.015,21.294.113c.484-1.599-7.918-3.583-6.936-5.994.158-.389.933-.609,1.448-.304,4.205,2.491,8.739,3.727,13.829,4.162,2.819.241,6.464-.898,8.911-2.55,2.304-1.555,3.815-3.776,6.411-5.044.396-.193.88-.995.762-1.345-.454-1.352-7.422.819-13.88-1.338-4.65-1.553-13.691-9.025-15.874-13.87,2.677-1.991,5.593-1.717,8.444-1.087,7.781,1.719,5.537,4.375,10.659.908,3.042-2.059,6.978.271,8.944,3.017l6.503.39c.658.039,1.258.354,1.531.699.383.485.437,1.804-.284,2.057-1.848-1.238-4.53-1.96-6.29-.432-.727.631-.724,1.96-1.549,2.414-1.84-.668-1.53-2.476-2.326-3.683-.882-1.336-2.632-2.26-4.055-1.993-1.193.224-2.961,1.415-2.729,3.003.117.801.621,1.469.221,2.086-.302.465-1.109,1.309-1.904.703-1.247-.95-2.694-1.672-3.84-2.643-1.479-1.252-2.67-2.023-4.669-2.387-1.232-.225-2.391-1.572-3.891-.889.481,2.26,2.938,2.761,4.293,4.098,3.28,3.238,7.057,4.904,11.805,5.238,2.254.159,4.545,1.125,6.768.189,3.168-1.334,6.456-2.252,9.291-4.201,1.406-.966,2.068-2.973,3.635-3.748,6.12-3.026,12.946-3.079,19.777-3.235,4.247-.097,8.108.465,11.765,3.017l8.969,6.259c4.652,3.246,6.235,6.848,12.705,9.717,2.014.893,3.981,2.167,6.163,2.719,3.521.89,6.85,2.129,10.357,2.711,5.616.932,4.635-3.731,8.519-8.395-1.264-.452-2.367.106-3.295,1.111-1.864,2.021-5.562,2.54-7.41-.152-2.435-3.548,1.768-8.84,1.607-9.218-.12-.282-3.09-.095-5.063,1.438-.446.347-1.475.246-1.71-.078-1.281-1.769,7.673-6.349,10.583-5.765,3.248.652,6.028,3.073,9.496,1.218,1.981-1.06,3.976-.634,5.562,1.12,3.014.206,4.067-2.755,6.338-1.289,4.329,2.794,5.226-2.619,10.541,2.146,2.828-1.834,6.851-2.741,8.992,1.005,7.125-5.676,9.27-1.32,11.233-2.609,2.29-1.504,4.349-1.203,6.53.198,2.295,1.473,4.689-3.147,10.599,1.78,2.529-1.332,6.193-3.043,9.058-1.311,1.653.999,1.15,4.241,1.09,5.765-.09,2.305-.831,3-2.295,4.414-1.962,1.895-4.558,3.596-7.321,2.051-1.065-.595-.763-2.065-.407-2.742.601-1.143,1.838-1.348,3.299-.859,1.792.6,3.205-1.503,3.291-3.273.045-.925.186-2.125-.473-2.501-.565-.322-1.738-.483-2.48-.097-.532.277-.386,1.606-.474,2.496-.989.734-2.164.379-3.509.817-.72,3.112-4.264,8.251-8.168,7.566-1.303-.229-2.226-1.895-1.883-2.915,1.162-3.461,4.583.12,5.454-1.847.629-1.422,1.465-2.955,1.273-4.579-.121-1.026-1.858-1.619-2.674-1.609-.793.01-2.36.605-2.812,1.551-.661,1.382-1.756,2.266-2.479,3.5-.437.745-2.375,4.759-3.711,5.003-.428.078-1.73-.334-1.561-.954,1.584-2.533,3.908-5.232,2.839-8.662-.279-.894-2.473-.534-3.395-.154.133,4.391-2.614,8.841-6.967,9.675-1.136.218-2.093-.969-2.172-1.629-.088-.732.087-2.335,1.262-2.005.796.224,1.367.761,2,.792.983.049,4.36-2.775,2.859-5.879-.779-1.61-2.59-2.141-4.625-1.399-4.099,1.494-3.31,8.29-8.06,9.716-1.707.512-3.8-.03-3.891-1.878-.046-.932-.003-1.397.678-1.613.76-.241.816.545,1.365.899,1.668,1.074,3.139-.61,3.624-2.179.383-1.24,1.317-2.089.64-3.203-.6-.987-1.472-1.638-2.786-1.658-4.256-.066-6.14,3.703-7.087,7.122-1.69,6.099-6.409,9.541-4.113,10.848-.3-.171,4.866.06,6.741-.261,4.839-.83,9.642-.327,14.547-.268l25.773.311c1.997.024,3.636.801,5.683-.111,1.473-.656,3.032.955,4.471.956l21.884.021c1.573.002,3.518-.252,4.944-.602,2.496-.614,4.282-.088,6.686-.005l11.668.401,33.479.484,9.05.551c5.305.323,10.727.452,16.079.024,2.246-.18,4.17-1.314,6.696-.846,2.142.397,4.814-.459,6.776.645,2.106,1.185,3.465-.035,5.374-.235,4.267-.446,21.65-.552,26.137-.062,4.841.529,9.257,1.32,14.21.247,4.703-1.02,22.684-.11,19.389.717l1.281-.321c.848-.213.03-.084-1.053-1.035l-3.692-3.242c3.923.238,7.422,3.018,11.036,2.617,10.946-1.214,4.397,1.319,14.584-5.127.458-.29,1.321-1.007,1.938-.608,2.308,1.764-3.226,5.002-4.951,5.685-.883.454-.497.913.439.693l8.912.223c1.481.037,2.657-.016,4.104-.027l16.945-.138c.966-.008,1.674.964,2.556.978l13.444.211c10.489.164,19.324-.044,29.919-.029,2.855.004,5.69,1.747,8.577,1.314,4.399-.66,8.62-.872,12.944-1.68l5.072-.949c5.873-1.099,11.953,2.527,14.188,1.093.537-.344.408-1.162.05-1.718-.95-1.478-1.977-1.863-3.764-1.676-3.71.387-7.954-1.588-8.525-5.472-.201-1.366.692-4.054-.802-4.335-1.388.02-3.234.913-4.372,1.506l-5.587,2.912c-2.598,1.354-7.674,5.389-9.515,3.908-.328-.264-.17-1.124.476-1.422,7.855-3.625,10.042-7.045,18.694-10.719,2.064-.877,3.995-2.796,6.328-3.014,4.87-.454,8.05-3.826,18.185-2.11,2.501.423,4.003,1.233,6.641.219,3.142-1.208,9.992-.33,11.53,1.435,1.549,1.778,3.454,1.625,5.446,2.158,6.195,1.656,12.177,1.646,17.694-1.853.416-.264,5.133-2.415,5.324-4.952.138-1.827-6.736-1.235-7.919-1.034-4.007.681-4.758,5.375-6.827,5.272-1.46-.073-.966-1.341-1.375-2.476-.895-2.483-4.579-3.747-6.786-2.511-.838.469-.902,1.248-1.062,1.789-.256.866.78,1.355,1.089,2.319.337,1.051-1.041,1.033-1.705.707-.965-.474-1.149-1.264-2.003-2.185-1.396-1.507-6.277.563-5.904-1.206.006-.027,2.335-2.129,5.027-1.885,1.691.153,2.575-1.401,3.929-2.059,1.626-.79,4.344-1.132,5.787-.173l3.336,2.216c1.747-.479,3.074-2.378,4.905-2.418l6.001-.13c2.316-.05,3.822.935,5.76,1.818,1.289.587,7.157-3.219,4.348-.159-3.19,3.475-6.933,7.026-10.932,9.495-2.38,1.47-4.359,1.933-7.241,1.979-1.567.025-3.084,1.422-4.982,1.037-3.048-.619-6.198-.682-9.118-1.608-.831-.264-8.508-3.607-7.74-1.47.042.117,7.074,5.681,7.972,6.339l6.082,4.454c2.095,1.534,5.507,1.156,7.047,2.77l.588.617c3.218,3.372-7.549-1.247-8.1-1.528-3.617-1.843-7.277-3.551-10.534-5.95l-7.166-5.278c-7.407-5.455-18.413-3.913-25.968-.151,6.228,1.486,10.787,5.48,14.053,10.548,1.806,2.802,4.526,4.12,7.656,4.933,3.944,1.025,4.392-2.334,6.483-1.726.55.16-.109,2.444.592,2.717.495.192,1.054.287,1.67.255,6.952-.356,13.655.817,19.322.152,6.298-.739,11.074.368,17.379.467l4.809.076c.622.01,1.037.389,1.03.94-.004.296-.124,1.185-.702,1.157-5.111-.241-10.59.646-15.683-.309-2.534-.475-3.773-.453-6.365-.025-5.294.875-11.033.211-16.408.187-4.768-.022-4.777-1.19-13.714-.806-2.466.106-2.762-1.372-4.104-2.484-1.852-1.537-3.381-2.479-5.14-4.48l-3.417-3.888c-1.725-1.963-3.642-3.132-6.088-3.612-1.636-.321-4.161-1.295-4.751,1.195-.47,1.983,1.402,4.831,3.335,5.268,2.186.495,5.515-.78,6.41.973,2.468,4.838,2.297,2.402,6.793,5.351l.596.391c3.677,2.413-7.485,1.8-6.708,1.681-2.653.407-4.879-.107-7.539-.263-15.957-.938-13.587,1.179-21.123,1.014l-11.389-.25-8.026-.419c-2.779-.145-5.225-.965-8.001.049-1.617.591-3.33-.508-5.005-.506-2.882.002-6.04,1.59-8.84.759-6.546-1.943-15.366-.206-16.158-.307l-7.451-.944-9.515.153c-3.745.06-7.244.091-10.987-.014l-11.336-.318-5.699.681-8.519-.095c-3.748-.042-7.473-.727-11.12-.063-.65.118-1.078,1.591-2.146,1.308-1.361.57-.304,1.339.7.906,6.124-.17,5.951.407,11.75.216l13.29-.437c5.293-.174,12.587.35,17.779,1.451,2.802.594,5.802-.404,8.568.421,1.853.552,3.414,1.423,5.295.231.932-.591,2.561-.801,3.536-.1.719.516.459,1.698-.303,1.949-1.121.37-2.345.126-3.35.668-2.055,1.109-4.055.517-6.023-.322-5.408-2.305-11.509-.84-15.481-.805l-18.888.165c-.883.008-1.68-.673-2.585-.601-3.49.277-6.983-.411-10.413.27-1.931.384-3.842,1.401-6.107.78-1.884-.516-3.619-.191-5.452-.174-2.446.023-4.867-.705-7.36-.103-1.708.412-1.77,1.616-1.637,3.29.493,6.176-4.097,9.373-4.997,8.621-1.764-1.474,1.261-.214,2.569-6.581.304-1.479,1.904-3.129.44-4.551-.764-.742-3.785-.713-3.875.555-.262,3.664-1.058,6.776-3.666,9.451-1.521,1.56-2.697,3.643-4.583,4.832-.356.224-1.013-.112-1.134.091-.23.387-1.144-.595-.742-.9,4.313-3.264,8.356-8.386,6.703-14.453l-26.408.158-17.253.345c-1.118.022-1.948,1.306-3.316.731-2.637-1.11-5.407-.938-8.289-.957l-31.455-.208c-1.733-.011-2.834-.783-4.235-1.174-1.296-.361-4.003,1.413-4.296,2.706-.746,3.301-3.711,10.147-6.259,12.796-1.486-.664-.466-2.147.074-3.196l2.836-5.513c.872-1.695.969-3.689,1.51-5.481-1.584-.441-2.76-.24-4.404-.183-.739,1.335.009,2.99-.66,4.49-.615,1.379-3.412,7.13-4.337,7.078-2.177-.123,1.003-4.102,1.716-6.621-.206.727,1.093-4.944-.52-4.954l-24.336-.145c-2.04-.012-4.035-1.963-5.934-1.718l-7.493.968c-1.112.144-12.97-.501-12.172-.206l-2.612-.969-46.324-.147c-5.915,3.388-3.057,4.256-6.474,7.209-4.642,4.012-5.007,6.958-9.682,9.311-.544.274-.957-.362-.914-.752.054-.493,3.654-4.205,4.74-5.446l7.227-8.26c.35-.4.502-.905.597-1.207.409-1.298-4.501-1.614-6.42-.632-1.116.572-7.4,7.617-7.195,7.437l-8.4,7.38c-.534.469-1.836-.276-1.935-.752-.364-1.747,2.668-2.154,7.035-6.485.767-.761,8.42-7.193,6.208-8.019-2.129,1.598-5.031.155-7.084.656-2.938.717-4.605,4.299-6.785,6.086-2.782,2.281-4.994,4.557-7.345,7.166-.362.402-1.586.528-1.877.193-.982-1.129,2.714-4.252,3.593-4.918,3.053-2.314,5.106-5.473,7.865-8.21,1.971-1.368-8.561-.866-9.489-.432-2.622,1.225-3.805.239-6.257-.075-9.405-1.201-19.606,1.213-28.832.164-1.985-.226-3.456-.749-5.293.596-1.018.745-2.43-.782-3.416-.814-5.352-.172-10.43-.261-15.8.053-3.756.219-7.631-.821-11.43.114-3.227.794-5.352,4.241-5.538,7.329-.096,1.603-.672,2.7-.932,4.165-.679,3.818-3.367,8.664-5.405,6.715-1.214-1.161,2.436-1.719,2.513-5.65.028-1.41,1.412-8.901,2.646-10.446.292-.365-.011-1.343-.325-1.506-1.284-.668-4.268,4.876-4.303,5.023-.881,3.659-1.723,7.263-4.359,10.106-1.882,2.029-4.198,1.583-4.388,1.184-.831-1.743,2.236.154,4.88-7.189,1.668-4.633-.765-4.328,2.964-8.59.258-.295.012-1.494-.521-1.476-3.054.1-5.857-.256-8.902-.304l-12.997-.203c-2.365-.037-4.261-.508-6.635.038-7.614,1.751-16.828-1.351-19.836,1.097-3.368,2.741-5.156,6.803-8.316,9.673-2.117,1.924-6.758,8.307-10.33,9.186-4.092,1.008,3.389-5.834,3.508-5.988,3.616-4.684,8.453-8.119,12.124-12.78.221-.199.748-.542.244-.638-.477-.091-.894-.375-1.388-.381l-15.385-.187c-2.306-.028-4.344-.723-6.692-.014-2.081.629-4.401-.447-6.225.465-4.318,4.722-7.84,9.907-12.82,13.36l-4.127,2.862c.337-.234-3.211,2.77-3.996,1.047-.282-.62,3.3-3.644,3.941-3.973,1.503-.772,2.108-2.334,3.334-3.211,3.523-2.518,6.537-5.427,8.925-9.129.191-.296.589-.576.145-.993-4.146.299-8.348-.367-12.331.376-1.995.373-3.336-.069-5.249-.089l-28.563-.292c-4.511,5.204-9.271,9.461-14.964,13.582-1.342-4.414,2.678-3.394,7.973-10.012.679-.848,1.754-1.283,2.134-2.426.756-2.271-4.958-1.099-5.514-1.101l-33.278-.105c-3.329-.011-6.849-.251-10.055.49-5.795,1.341-8.703-.008-9.755-.064-6.613-.35-13.245-.514-19.883.009-2.517.198-4.78.982-7.583.91-3.739-.096-7.518,1.025-11.349.23-1.502-.312-2.984-.721-4.665-.091-.135,4.238-1.661,7.988-5.188,10.471-.219.154-3.841,1.849-4.458,1.653-2.636-.837,7.357-3.222,6.257-11.308-2.113-.402-5.735-2.072-5.396-1.991-.446-.107-1.689.154-1.772.901-.5,4.495-1.258,8.721-2.834,13.082-1.275,3.528-5.771,9.388-9.12,8.243-.837-.286-2.18-.907-2.402-2.409,9.889,1.189,9.785-13.118,11.491-17.982.427-1.216-.871-2.348-2.085-2.342l-14.874.062c-5.673.024-6.766,2.508-9.622,1.332-.347-.143-.829.009-1.037.122-.106.058-1.333,3.902-1.285,3.483-.426,3.747-1.326,7.095-3.18,10.318-.768,1.335-1.148,2.58-2.29,3.75-2.243,2.297-5.926,2.392-7.965-.324-.415-.553.024-1.2.349-1.492,1.131-1.012,3.576,3.007,7.098-1.745,1.404-1.895,1.621-3.608,2.184-5.773.7-2.69,3.044-8.531.768-8.399-3.575.208-6.898-.244-10.394.292-.589.09-13.677-.821-13.531-.79-11.583-2.465-7.548,2.996-24.546,1.473l-6.106-.547-6.022-.471c-3.407-.267-6.687-.793-10.122-.054-3.395.731-7.303-.572-10.583.393-4.473,1.316-8.073.593-12.464.192-9.162-.837-16.53,2.159-22.489.706-3.869-.943,2.202,3.96-.418,7.738-.495.714-1.433,1.147-2.084,1.099-2.7-.198-.628-3.838-2.854-6.417-.413-.478-1.817-.061-1.912.656-.296,2.229-1.784,8.025-4.198,6.814-1.278-.642.941-3.998.97-4.15.408-2.185-.128-4.278,1.324-6.571-1.792-.415-3.255-.63-4.767.048,5.959.817-3.151,8.594-3.535,8.473-.301-.095-1.221-.358-1.127-.752,1.136-4.747,4.946-6.335,4.195-7.278-.679-.853-17.758.328-18.377.548-.514.182-.29.997-.6,1.618-1.37,2.748-3.604,4.859-5.902,6.564ZM278.763,108.413c-1.778-2.183-3.701-3.497-4.433-5.992-2.198-2.618-4.742-5.867-8.406-3.313,4.414,3.353,1.744,3.075,7.343,6.407,1.732,1.03,2.823,3.522,5.496,2.898ZM224.645,116.225c-1.262-1.158-.649-3.357-1.447-4.694-1.144-1.916-3.138-3.768-5.292-2.485-1.254.747,1.091,4.429-.622,4.632-.398.047-1.379-.141-1.611-.641-.891-1.922-2.399-2.541-3.94-3.632-2.506-1.774-5.665-4.688-9.799-1.164,8.975,5.799,7.922,11.331,21.542,10.521,5.37-.319,5.062-1.675,10.645-2.904-1.553-1.79-4.498-2.525-6.679-1.261-.735.426-1.738,2.599-2.796,1.628ZM503.388,117.556c1.436,1.753-.563,3.77-1.196,4.994-.936,1.811-3.673,1.136-5.03,2.078-1.267.879-1.229,3.067-3.14,3.501-.344.078-.583.923-.447,1.169s.368.879.981.88l33.183.061c-1.08-1.879-3.048-2.189-4.766-2.558-2.203-.473-3.423-2.173-5.163-3.333-3.141-2.094-6.335-3.852-9.092-6.491-2.223-2.128-4.488-3.743-7.206-5.298-3.128-1.789-6.148-4.609-10.002-4.792-11.45-.544-16.023-1.141-24.906,5.041-1.987,1.383-3.289,3.526-5.034,5.324l-6.881,7.091c-1.639,1.688-3.082,3.22-5.338,4.344-.384.191.775.943,1.252.941l12.282-.047c.703-.865.69-1.733,1.533-2.536,1.226,1.37,2.637,1.054,4.109,1.21,9.246.977,8.318-7.304,19.018-13.455,5.19-2.983,11.763-3.106,15.844,1.874ZM309.218,112.85c1.253-.717,1.533-1.49,1.212-2.606-2.261-.218-4.409-.234-6.782-.007-1.201,1.359-2.636,2.612-3.049,4.538-.217,1.012.876,3.444,2.173,3.567,3.09.293,5.916-2.481,6.446-5.492ZM379.805,130.064c-.839-2.485-2.914-3.268-4.199-5.102-.915-1.306-.958-4.579-.119-5.925l3.067-4.92c.822-1.318,2.802-1.572,3.108-3.666-1.65-.496-5.133-.336-6.184,1.582-2.288,4.174-4.182,8.225-6.87,12.121,0,0-3.329,5.482-2.833,5.875.907.72,11.803.272,14.03.035ZM360.805,110.891c-1.74-.641-3.736-.331-5.641-.218-1.878,1.944-4,5.733-1.511,7.51,1.17.835,2.113.395,3.279-.094,3.498-1.467,5.557-6.577,3.874-7.197ZM263.215,115.491c2.494-.934,4.383.031,6.891.585,1.613.356,4.192.567,3.767,3.002-.168.961-1.598,2.112-.705,3.297,1.395,1.85,1.172,4.198-.822,5.484-.897.579-1.818,1.1-2.287,2.232,4.925.079,9.501.216,14.325-.064,3.044-.176,5.996.675,9.347.003-1.705-1.562-3.988-1.639-5.731-3.004-3.801-2.976-7.867-5.62-11.362-8.922-3.563-3.366-7.229-5.479-12.166-6.467-9.241-1.849-19.719,1.715-25.157,9.295-.83,1.157-2.22,1.751-3.125,2.764-4.492,5.028-8.072,3.62-7.439,6.025.3,1.139,9.369,1.223,10.112-.013.163-.271-.162-.709-.203-1.438,8.429,3.02,11.599-1.496,17.796-8.293,1.956-2.145,3.869-3.404,6.76-4.487ZM318.862,113.376c-.483-2.39-4.73-2.444-6.035-1.038-1.125,1.213-1.572,4.167-.15,5.014,2.301,1.37,6.65-1.672,6.184-3.976ZM371.554,112.195c-2.303.072-4.35-.462-6.348.185-1.221.396-3.359,4.209-1.653,5.406,2.381,1.671,7.377-2.906,8.001-5.591ZM548.727,113.176c-1.056-1.474-5.468-1.152-6.641-.898-1.968.427-3.544,2.324-3.68,4.27-.108,1.552.53,2.751,1.623,3.333,1.136.605,2.423.11,3.507-.749.616-.488,6.949-3.502,5.191-5.956ZM560.697,119.478c1.268-2.38,2.376-4.05,1.699-6.264-.427-1.398-2.098-1.288-3.256-.748-2.087.974.096,7.625,1.557,7.012ZM543.512,130.022l8.028.139c2.72.047,4.391-1.172,5.263-4.079,1.586,1.131.291,2.185-.378,3.78,1.763.208,3.671.749,5.368.464,1.451-.244,1.385-2.161,2.03-2.974,1.754-2.209,7.029-12.268,5.547-14.247-.633-.845-3.341-.749-3.756.551-.831,2.605-5.352,12.244-8.075,13.27-.674-1.686.219-2.585.478-3.846-4.534-3.759-.449-10.278-4.698-10.225-2.053.026-3.288,3.549-3.838,5.537-1.511,5.461-4.129,6.318-5.97,11.629ZM491.089,126.602c1.2-.03,2.069-.496,2.608-1.161,1.591-1.961-1.715-4.947,1.083-5.288,1.765-.215,2.304,2.907,4.802,1.773.761-.345,1.478-.991,1.147-2.049-.839-2.684-7.914-3.563-10.106-3.12-2.23.452-4.35,1.964-5.837,3.568l-9.014,9.729c1.538.722,3.609.687,4.901-.412,2.683-2.281,2.055-7.36,5.073-7.003,2.338.277,1.461,4.06,5.342,3.962ZM266.379,126.709c1.768.018,4.026-1.113,3.519-2.875-.398-1.382-2.203-1.815-3.109-2.907.994-1.349,3.989-.079,3.154-2.01-.519-1.202-5.461-1.672-7.056-.93-3.637,1.692-6.095,4.879-8.543,7.919-1.303,1.618-3.112,2.623-4.185,4.163,3.4,1.109,6.606-.659,8.349-3.041.389-.532-.206-1.733.402-1.818,3.909-.543,1.827,1.443,7.469,1.499ZM221.582,135.742c7.6-.366,15.196-.493,22.652.09,4.647.363,8.903.033,13.548-.034l35.012-.51,14.305.006c1.032,0,2.682-1.466,1.817-2.202-2.256-1.007-5.321-.073-7.893-.111l-7.439-.109c-5.846-.086-24.949-.175-29.441.861-2.125.49-3.636-.05-5.627-.101l-12.128-.308c-4.981-.127-9.671.385-14.584-.057-7.869-.708-15.604.129-24.302.121l-13.958-.013-6.889.404c-7.057.414-7.304-1.096-9.261-1.04-5.341.153-10.886.856-16.095-.512-2.051-.539-3.091.309-4.866.506-4.932.549-9.817.15-14.72,1.457-2.008.535-4.141-.589-6.147-.63l-9.425-.192c-5.541-.113-10.967.016-16.585-.15-3.292-.097-6.207.633-9.608-.07-6.332-1.309-9.828,1.596-13.962,1.522-2.003-.036-4.461-.918-6.275.7,4.474-.294,8.522-.565,12.906.162,11.896,1.971,11.231-1.776,20.399.967,2.373.71,4.775-.886,7.077-.897l12.922-.061,3.553,1.041,16.482-.096,5.471-.557c1.73-.176,3.754-.645,5.396.235-.367-.197,24.375-1.182,27.118-.648l5.087.991c2.788.543,5.996-1.276,8.855-.76,11.211,2.024,10.135.305,16.607-.007ZM392.68,132.147c-8.701-1.014-10.223,1.704-19.188.032-2.604-.486-5.311-.11-7.985-.141-2.014-.023-3.746,1.458-3.904,3.322,4.888.292,9.54-.137,14.42-.198l15.389-.192c.84-.01,1.916-2.264,1.268-2.823ZM312.22,135.108l22.737.64c1.813.051,3.144-.211,4.898-.232l15.46-.183c1.939-.023,4.287.357,4.767-2.334l-22.036.113c-1.92.01-3.699.802-5.624.008-1.561-.644-3.307.533-4.794.23-2.045-.417-3.734-.112-5.676-.162l-7.47-.193c-.77-.02-1.632-.058-2.128.518-.291.338-1.114,1.568-.135,1.596ZM520.538,133.31c-3.542.285-6.991-.37-10.535.855-3.764-1.432-7.65-.391-11.459-.912-3.287-.45-6.31.057-9.463-.029-3.31-.09-6.232-.311-9.573.14-2.17.293-14.176.561-16.777-.279l-57.874-.189c-2.564-.008-4.811.247-7.324-.131-1.646-.248-2.966.755-3.453,2.259,10.309.324,19.213.215,29.692.275l38.751.223c5.72,1.245,11.201,1.03,16.987,1.126,1.697.028,3.152.477,4.302-1.341l51.7.016c.846,0,2.01-.694,1.649-1.468-2.693-1.066-12.61-.867-16.623-.544ZM559.409,133.149l-3.91-.355c-1.435-.13-2.591,1.149-2.841,2.341.17.925,10.059-1.685,6.751-1.986ZM624.423,134.796c-.193-.29-.837-.448-1.378-.464l-15.518-.48-8.499-.505c-4.605-.273-8.896-.476-13.454-.018,1.496-.15-12.43-.588-12.044-.602l-9.928.362c-.717.026-1.304.86-1.438,1.272-.59,1.808,8.312,1.166,9.31,1.043,3.611-.445,7.006-.003,10.61.011l23.972.092c2.167.911,20.452,2.424,18.367-.712ZM548.077,135.311c1.319.01,2.574-.792,2.438-2.217-1.825-.069-9.103-.47-9.515.678-.134.373-.301,1.482.471,1.488l6.606.052ZM731.825,137.876l23.157.147c1.693.011,3.061-1.118,4.619-1.247,6.48-.536,12.711.331,18.974-.51-5.728-.045-12.085-3.118-17.436-1.762-3.108.787-5.268.328-8.225.189-7.229-.341-14.556-.505-21.849-.004-2.942.202-5.683,1.946-8.789-.01-1.065-.671-2.913.025-3.988.42-3.516,1.292-6.853-.018-10.292-.388-4.967-.534-9.795-.152-14.813-.366-10.842-.463-21.462-.296-32.397-.14-4.83.069-9.895-.875-14.461.619-2.599.851-3.995.657-6.5-.077-3.045-.892-6.759-.386-10.128-.16.57,2.061,13.036,2.94,14.395,2.954l27.732.293c1.465.015,2.373.833,4.039-.002,1.037-.52,2.837.489,4.165.276,4.635-.742,9.059-.664,13.63-.318l12.356.935,12.042-.828,7.991-.255,5.777.231Z" fill="#ebd5b3"/>
        <path d="M1631.901,132.656c.005,2.744.4,5.523.001,8.269-3.974.228-8.162-.483-12.291.257-2.063.37-3.775,1.121-6.176.802-6.193-.824-12.559-1.834-18.77-.734-9.983,1.768-11.12.009-18.618-.197l-15.515-.428-11.019,1.155c-2.455.257-5.222-.816-7.612.083-2.189.824-2.881,3.301-4.048,4.932-2.675,3.74-1.372,4.466-5.948,9.532-1.366,1.512-7.31,2.87-5.561,1.058,5.207-5.394,6.599-3.302,10.503-13.485.28-.731,1.34-1.572,1.2-2.202-.271-1.214-1.619-.779-2.467-.863-2.272-.226-3.004,1.296-3.877,2.874l-5.504,9.95c-.787,1.423-1.503,3.179-3.292,3.538-2.265.456-7.806.254-6.155-1.239.201-.181.649-.78,1.144-.704,6.174.947,8.982-8.669,11.587-12.862.382-.615.601-1.277.242-1.387-.328-.1-27.101-.507-26.687-.419l-2.51-.533c-.988-.21-1.954.487-3.015.493l-18.257.107c-3.2.019-6.118.837-9.316,1.149-2.791.272-5.75-.599-8.562-.685l-12.245-.373c-5.861-.178-11.76-.139-17.57-.047-2.952.047-3.335,1.521-4.922,3.33l-5.677,6.475c-1.61,1.836-3.462,3.481-5.272,5.085-3.023.747,3.086-5.797,3.113-5.82l.54-.459,5.941-7.115c.255-.306.589-.522.954-.625,1.967-.555-6.009-2.703-8.75.841-1.716,2.218-11.87,11.935-14.212,12.151-.45.041-1.347-.16-1.05-.854.118-.275.208-.623.379-.75l4.525-3.362,7.833-7.622c.484-.47.54-.839.275-.963-.455-.213-.77-.159-1.187-.163l-1.012-.011-4.547.048c-2.351.025-3.785,2.002-4.83,3.835.209-.367-6.551,6.04-7.199,6.666-.573.553-2.866,3.107-3.354,1.742-.731-2.046,9.929-10.053,10.662-11.905.291-.735-.511-.663-1.233-.668l-13.87-.09c-1.489-.01-2.735-.537-4.264-.064-1.617.499-3.322-.124-4.99-.167l-13.319-.341c-2.241-.057-3.885-.54-6.195-.039-1.764.383-4.125.639-5.909.299-2.903-.554-5.239,1.158-8.025,1.24-1.964.057-4.355-.396-6.255-.695-2.892-.454-5.335.208-7.917.271-2.456.06-4.784-.667-6.217,2.221-1.195,2.407-3.448,4.157-5.258,6.123-1.694,1.841-9.681,11.068-11.524,10.508-2.42-.736,1.646-3.241,4.151-5.938l7.71-8.302,2.477-3.082c.301-.375.903-.956.834-1.291-.254-1.229-6.717.273-7.442.343-2.013.194-3.983-1.118-5.951-.611-7.716,1.99-8.476-1.608-16.153.389-2.595,2.269-4.074,5.194-6.94,7.11-1.759,1.176-3.208,2.765-4.781,4.245-8.28,7.789-8.81,5.038-7.719,4.085l5.26-4.595c1.196-1.044,11.757-10.912,10.511-11.108-.437-.069-.781-.36-1.124-.363l-16.596-.165-1.021.016-26.897.019c-.229,0-1.325.42-1.465.563-4.623,4.669-9.338,8.911-14.467,13.007-1.153.921-4.847,4.747-6.004,2.555-.23-.436.336-.951.799-1.179,1.79-.882,2.946-2.414,4.528-3.481,2.386-1.609,4.274-3.373,6.084-5.575,1.645-2.002,4.382-2.872,5.439-5.714-2.847-.087-5.762-.682-8.317.089-2.075.626-4.256,1.769-6.747,1.117-5.474-1.434-10.785-1.527-16.452-1.157-2.498.163-4.869-.311-7.542.053-4.046.552-8.251,1.707-12.338.905-4.396-.862-8.561-1.779-13.15-.531-7.403,2.013-8.887-.867-14.875-.868-2.456,0-5.09.648-7.523.069-2.206-.525-3.927-.047-6.086-.024l-30.919.317c-2.05.021-3.972.472-5.987.356-5.047-.289-4.135,3.666-9.009,8.964-.335.364-3.66,4.552-4.708,3.888-.676-.428-.388-1.525-.12-1.679,2.185-1.257,2.899-3.397,4.252-5.28,1.053-1.466,2.641-2.584,2.923-4.544.232-1.615-3.105-1.744-5.048-1.765l-25.177-.28c-2.222-.025-3.974-.344-6.269-.009-4.867.71-19.396-.931-23.575.005-1.642.367-13.58-.404-16.653-.493l-5.164-.149c-5.296-.153-10.167,1.272-15.551.512,1.45.205-14.743.458-14.321.525-2.309-.363-16.417-1.695-18.149-1.598-2.728.152-5.258.42-8.033.329-3.362-.11-8.559,2.035-16.368.38-3.717-.788-7.116-.099-10.69-.247-4.711-.194-9.203-.247-13.882-.091-1.23.041-2.29,1.027-3.531,1.004-5.048-.097-9.937.258-14.975-.094-3.188-.223-6.25-.644-9.515-.355-2.431.215-4.68-.2-7.019-.384-1.887-.149-3.83.962-5.792.075-.896-.405-1.765.216-2.691.228-6.691.084-13.221.295-19.864-.12-1.638-.102-2.887-.667-4.66.184-.507.244-1.427-.286-1.736-.561-.456-.406-.43-1.246.127-1.43.677-.224,1.34-.037,2.084-.045l23.052-.234c4.689-.048,8.764.05,13.52.062l64.432.171c-.131,0,15.322-2.011,21.096-1.037l6.436,1.086c4.124.696,8.277-.312,12.417.095.868.085,1.433,1.251,2.391,1.162.943-.087,1.46-.664,2.406-1.094,1.947-.884,4.158.065,6.215-.019l11.761-.479c5.724-.233,11.555.808,17.357-.245,1.879-.341,3.349-.965,5.469-.963,3.01.003,5.663.55,8.494.878,8.367.971,17.305.352,25.726.436l19.743.195,4.097.996c.906.22,24.48-.136,23.401-.536,2.822,1.045,5.226.399,8.013.18l7.035-.552c7.847-.615,15.617-.44,23.416.209,1.308.109,2.589,1.051,4.252,1.049,6.097-.007,13.075-2.684,19.098-1.024,2.235.616,2.952-.04,4.956-.068l43.07-.607c-3.152.044,8.994-1.852,8.705-1.426.147-.216-.004-.716-.435-.707l-5.964.115c-4.083.079-7.636.579-11.652,1.167-4.702.688-14.544-1.853-23.192-.613-3.93.563-8.184.586-12.247.131-2.59-.29-4.832-1.585-7.693-.951-3.371.747-7.451-.627-10.811.344-6.451,1.863-12.043.987-18.641.087-6.419-.876-12.858-.01-19.371-.316-2.04-.096-4.326.1-6.071.865-1.874.822-2.93-.66-4.49-.693-5.257-.11-10.632-.58-15.804.143-3.581.501-6.762,1.597-10.422-.064-1.232-.559-3.59-.292-4.962-.014-3.555.721-6.752-.083-10.265-.098l-30.484-.134-4.152-.572c2.068.285-21.802.905-27.56.332,4.073.406-13.448-2.2-7.237-2.093,5.035-.939,8.643.374,13.93.381l9.053.012c-.035,0,5.995,1.462,5.496-1.261-.097-.53-2.449-4.071-3.575-4.17-2.523-.222-5.063-.835-6.468-3.022-1.663-2.59-.627-5.013,1.562-6.082.735-.359,1.202.388,1.12.785-.744,3.596-.616,4.106,1.393,6.008,2.354,2.228,6.398-1.909,7.413.117.243.486.011,1.443-.444,2.089-1.367,1.94.643,3.216,2.056,4.284,1.296.98,2.173,1.244,3.793.378,2.544-1.359,4.254.568,5.006-3.044-.185-.52,9.472-1.141,6.992,1.261-1.965,1.903-5.481-.701-5.738.967-.31,2.006,7.08.666,11.328,1.233,1.727.23,3.275.48,5.063.454,7.253-.108,30.816.97,33.678.62l7.176-.879c6.471-.792,1.152,1.282,11.145.373,3.617-.329,7.206-.239,10.801.121,6.052.606,12.001.163,18.045.2,1.953.012-2.863-1.85-3.143-4.315-2.884,1.274-6.246,1.31-8.961-.483-1.912-1.263-1.436-4.154-2.412-5.558-1.218-1.334-6.201-2.135-4.883-5.677-.319-.562-1.796.22-2.417.708-4.567,3.581-8.975,7-13.881,10.089-.753.474-1.875.086-2.583.478-3.22,1.781-10.556,3.639-14.101,3.678-1.802.02-3.248-.456-5.016-.753-10.619-1.781-10.107-1.2-19.416-5.251l-4.176-1.817c-2.922-1.272-5.822-3.519-7.964-5.793-1.167-1.239-1.438-1.283-3.336-2.015l-8.079-3.116c-2.238-.863-19.434.049-14.584,2.944,1.909,1.14,1.008-.405,4.801,2.203,1.809,1.244,7.802,5.356,7.652,7.448-.202,2.806-5.507-5.681-14.602-8.579-8.187-2.608-19.318,8.408-26.1,10.546l-4.477,1.411c-3.379,1.065-7.084.01-10.523.309-2.768-3.093,7.848.883,16.955-4.805l6.777-4.233c1.873-1.17,3.602-2.157,5.465-3.397,3.221-2.144,11.846-5.803,15.884-6.511,5.358-.939,11.289.02,16.584,1.19,3.76.831,7.299-3.225,21.629,2.85,1.374.583,1.654-3.433,2.928-4.096,2.464-.366,4.726-.46,6.247-2.784,1.089-1.663,3.569-1.289,4.981-.238,1.841,1.371,2.932.112,4.569-.562l4.539-1.868c2.032-.836,3.976-1.002,5.77.215,4.722,3.204,5.297-1.457,8.019-.122.217.107.725.84.473,1.071l-6.167,5.671-7.271,4.736c-1.813,1.181-4.111,1.522-6.199,2.272-4.864,1.747-10.803,2.051-15.504-.078-2.825-1.279-5.6-1.948-8.194-3.416-3.289-1.861-12.453-3.718-10.381-1.174.607.745.793,2.081,1.788,2.427,1.063.369,2.664-.517,3.521.377,1.221,1.272,2.709,1.623,4.115,2.453l4.052,2.393c6.642,3.923,16.398,7.644,23.934,7.389l6.272-.213c11.223-.381,26.433-18.82,37.536-18.796,5.121.011,10.374-.482,15.382.256,2.734.403,4.865,1.467,7.802.355,2.596-.984,5.51.605,7.855,1.573,3.887,1.606,6.099-1.897,10.36-.934l2.996-4.003c.786-1.05,2.677-1.619,4.067-1.259,3.044.789,5.298-.261,8.109-.836,2.228-.456,5.568-.558,7.668.093,2.41.747,3.898,3.064,6.861,2.108.492-.159,1.448.192,1.404.763-.022.284-.229.862-.731.927-8.591,1.112-9.075,6.605-16.213,9.698-4.226,1.831-11.369,1.34-14.904-.098l-14.555-5.918c-.349-.142-.977.309-1.26.271-1.513-.204,2.34,3.52,1.612,3.086,3.28,1.629-14.156-4.265-10.996-3.105l-3.664-1.345c-2.766-1.015-12.027,1.197-15.297,1.352-.328.015-5.755,2.354-5.359,3.077,1.167,2.131,13.591-4.504,25.855,9.213,2.331,2.608,5.239,3.824,8.23,5.413,2.748,1.46,5.696,1.036,8.822.828,3.564-.236,10.402,1.927,10.96,1.096.835-1.243-6.082-2.977-10.25-6.936l-6.969-6.62c-.07-.066-1.99-4.001,3.797,1.235,9.234,8.355,20.846,12.328,33.389,11.4,2.547-.188,4.456.441,6.808.835,3.892.653,8.165.408,12.187.139,3.095-.207,5.826-1.366,9.064-.922,1.129.155,11.675-.044,13.435-1.521,1.441-1.209,5.227-8.054,3.765-8.725-.846-.388-1.869,1.382-6.963-.907-2.774.155-6.63,2.887-9.266.264-3.871-3.853,2.69-9.025,1.039-9.415-2.316-.548-3.125.67-4.35,1.028-2.112.617.74-3.429,4.624-3.758,7.666-.649,15.258-.098,22.849,1.058,2.218.338,5.951-2.149,10.002-.452,8.834,3.699,13.296-1.989,14.605-1.972.867.011,1.457.778,2.322,1.042,2.329.711,8.404-.726,13.091.447,3.147.788,5.729.718,8.874.239,4.718-.718,9.466-.635,14.143-.271.497.039,3.4,3.554,12.598-1.465,3.713,2.746,4.036-.383,5.532,1.226.679.731,1.307,1.214,1.983,1.403.987.275,1.534-.459,2.459-.786,5.456-1.932,6.418,2.389,7.958,2.203.283-.034,3.083-1.675,2.483-1.937-1.985-.866-.571-2.73-2.086-2.526-.88.118-1.649.938-2.475.592-.819-.343-.521-1.612-.579-2.332-.085-1.047.934-1.022,1.888-1.518.129-.067,2.573-3.12,3.452-1.922,1.323,1.804-1.234,1.311,2.365,3.355,1.199.681-1.153,3.131-.492,3.291.528.128,4.815.24,5.545,3.476.727,3.225-.28,6.255-2.616,8.184-1.769,1.461-3.511,2.569-5.825,1.243-.456-.261-.391-1.107-.314-1.644.227-1.586,3.416.095,4.96-1.443,1.243-1.238,2.046-4.005.724-5.816-.544-.745-1.555-1.36-2.683-.976-2.607.886-4.006,3.202-4.988,5.544-.627,1.496-1.919,2.356-2.961,3.689-1.466,1.874-5.087,2.229-6.771.512-.585-.596.024-1.908.473-2.249,1.369-1.038,3.279.534,5.027-.346,1.411-.711,2.736-6.324-.421-6.801-1.688-.255-4.333,1.393-5.127,2.906-2.603,4.96-5.166,9.534-8.241,14.2-.516.784-.065,2.304.54,2.516.535.188,1.626.651,2.332.48,3.775-.918,7.162.662,10.608.541,2.906-.102,6.052.374,8.821.129,3.303-.292,5.762-1.225,9.263-.355,1.895.471,4.399.162,6.496.452,2.715.376,5.566-1.14,8.351-.906l7.509.631c.527.044.68.768.916.675.191-.075-.018,1.192-.371,1.192l-44.954.022c-1.873,0-3.364-.654-5.246-.093-1.6.477-3.275-.437-4.949-.781-1.658-.341-3.582,1.228-3.694,2.69-.113,1.481,6.945.149,9.645.922,2.137.612,3.674-.139,5.744-.133l42.549.131c6.763.021,13.129.149,19.907-.766.536-.072.614-1.852.061-1.859l-15.883-.202c-.645-.008-.734-1.237-.518-1.548.185-.266.848-.393,1.325-.323l3.496.516c-.554-.082,12.986-1.143,13.802-1.126,2.959-3.149,5.623-6.722,6.977-10.691.139-.485-.809-.404-.948-.242-1.438.681-3.108,2.075-4.759,2.019-3.067-.104-5.248-2.909-4.767-5.743.301-1.769,2.624-4.992,2.649-4.906-.562-1.955-5.584,2.136-6.69,2.18-.658.026-.879-.424-1.008-1.121-.14-.754.504-1.058.87-1.539,1.789-2.353,4.074-2.747,6.425-3.564,2.728-.947,4.447-.49,6.971.195,3.411.925,7.325-.252,10.714.467.538.114,1.639,1.645,2.189,1.213,2.62-2.059,5.165-1.448,8.037-.64,1.144-.031,2.876-1.283,4.53-.559,1.001.438,1.875,1.064,2.979,3.091,2.969-3.822,6.589-.595,9.648-.532,2.371.049,6.179-3.031,8.944-.562,3.008-.325,5.047-3.237,8.265.312,1.564,1.725,3.521-3.529,6.987-1.952,3.272,1.489,2.759,4.307,4.324,2.852,2.147-1.997,5.979-3.506,8.326-1.081,1.467,1.516.789,4.374.335,6.287-.843,3.559-6.993,6.248-8.547,4.147-.554-.748.025-1.533.498-1.96,1.437-1.298,3.025.854,4.155.139,1.397-.884,3.38-5.868.803-7.579-2.268-1.506-5.633,1.632-6.991,4.788-1.049,2.438-4.731,7.654-7.628,5.883-.519-.317-1.219-1.329-.883-1.999.582-1.162,1.983-.265,2.784-.392,2.358-.375,3.214-2.729,3.484-4.857.201-1.586-.204-2.814-1.349-3.333-3.49-1.583-7.95,5.707-9.183,8.763-.254.629-.59.771-1.07.554-1.282-.58,3.786-8.204.113-9.131-.837-.211-2.917.698-2.883,1.681.164,4.656-2.82,8.44-7.547,8.443-.809,0-1.473-.764-1.531-1.25-.09-.753.205-1.47.849-1.668.595-.183,1.163.293,1.789.34,2.283.171,3.56-1.759,3.844-3.698.238-1.631-1.291-4.149-3.267-3.886-3.445.457-4.679,3.932-5.872,6.558-1.309,2.882-4.869,4.191-7.376,2.796-.807-.45-1.084-1.238-.875-1.857.743-2.205,4.448,1.796,6.567-2.645.503-1.053.803-2.061.111-3.11-.536-.813-1.526-1.031-2.813-1.149-2.172-.2-3.905.898-4.72,3.02-1.893,4.927-4.424,9.467-7.313,13.979-2.312,3.611,9.082,1.322,9.163,1.28,3.904-1.996,7.803-.463,11.905.182,1.609.253,3.245-.27,4.992.12,3.925.876,8-.344,11.962.129,3.774.45,7.357-.442,10.903-.292,7.097.302,13.916,1.425,20.723-.113-3.757-.366-6.817-1.595-10.245-2.702-1.35-.436-3.537-.926-3.002-2.885,2.257-2.12,6.6,1.995,9.764,2.233,2.261.17,5.034.611,7.286-.009,5.586-1.538,10.526-4.89,14.484-8.95,1.716-2.275-7.398.73-12.404-2.477-7.14-4.575-10.413-10.596-17.203-10.004-.41-1.159.358-2.427.885-3.468,3.115-.703,6.697-.905,10.131-.347,2.165.352,3.863,2.045,6.005,2.719,3.962-2.765,8.885-1.811,12.088,1.308,4.772-.99,5.701-2.789,10.587,2.312,2.813-3.183,6.604-2.221,9.861-3.014,3.916-.954,6.908-.848,10.742-.041,2.767.583,5.024.51,7.638,1.992,4.006,2.271,7.965,4.356,11.669,7.416.94.776,3.175-.942,3.555-1.866.498-1.212,1.465-1.762,2.474-2.369,5.011-3.016,5.211,1.914,8.191.136,1.775-1.059,3.364-2.999,5.557-3.375,2.635-.452,5.217,1.753,6.754,3.69,2.214-.663,4.025-2.231,6.326-2.555,3.104-.437,6.804-.66,9.845.221,2.279.661,3.838,3.236,6.143,4.174-3.407,3.886-5.405-.377-10.473,2.504-4.746,2.698-6.962,7.872-12.453,8.431-3.66.373-13.341-.616-11.439.971,3.583,1.155,6.847,3.004,10.55,3.846,2.458.559,4.931,1.012,7.203,1.884,2.114.812,3.786.818,6.019.317,1.347-.302,3.325,1.021,4.722.208.411-.239.951-1.782,1.464-1.417,1.435,1.021,2.025.565,3.44.302,8.185-1.518,6.435,2.209,10.1,1.195ZM1531.188,112.289c-1.139-2.055-2.365-2.273-3.841-2.147-2.11.18-2.494,4.039-4.47,3.458-.956-.281-.609-1.232-.897-2.05-1.06-3.01-4.726-4.71-7.748-3.702-1.189.396-1.165,1.68-1.381,2.737-.161.789-1.341.559-1.794.058-2.784-3.076-6.315-5.024-10.469-5.583-.22,1.698,1.111,1.923,2.036,2.606l7.956,5.869c1.798,1.326,8.974,3.47,10.405,3.255,8.899-1.336,3.702.297,10.204-4.502ZM1190.038,118.384c1.851-.069,3.496-1.023,5.556-.914,2.438.128,7.953-7.425,11.992-8.062l-4.301-1.464c-3.906-1.329-9.314,2.632-9.846,5.208-.204.987-1.567,2.857-2.602,2.07-1.144-.871-.341-3.208-.863-4.645-5.874-.141-3.777,7.421-5.771,5.757-1.509-1.259-3.923-2.292-5.464-.364,3.241.349,8.303,2.527,11.301,2.415ZM1087.025,118.708l5.525-.94c2.902-.494,5.418-1.679,7.717-3.403,1.8-1.349,4.22-1.97,5.697-4.335-2.652-2.832-6.246-2.09-9.174-.172-1.505.986-3.398,1.54-3.352,3.805.022,1.053-.761,1.554-1.638,1.488-2.57-.192.353-4.313-3-4.71-1.169-.139-3.535.274-2.711,1.957.616,1.258,1.829,3.407-.04,4.014-1.064-.023-4.871-3.641-5.754-.901-.967,3.001,7.875,3.002,6.729,3.197ZM1553.735,116.417c2.088-1.305,8.985-2.733,11.422-3.057-2.14-.477-3.488-1.506-5.128-2.248-3.412-1.544-7.327-.738-10.973-1.032-5.186-.419-9.614.856-14.055,3.429-2.198,1.274-5.292,2.536-6.505,4.958-1.276,2.548-3.148,4.045-5.016,6.092-3.575,3.92-7.742,7.323-13.531,7.673,4.461,1.305,8.843.629,13.574.609,3.591-.016,7.378.783,10.859-.463,11.704-4.187,13.046-12.021,19.352-15.962ZM1246.483,112.526c-.332-.531-4.96-2.936-8.408,1.705-.948,1.276-2.137,2.105-1.286,3.936.409.88,1.188,2.062,2.551,2.212,3.323.365,7.736-6.904,7.143-7.852ZM1332.543,123.38c-.788,4.081-3.687,7.262-7.521,8.221-1.508.377-2.977-.281-4.55.789,3.367.776,7.426,1.387,10.395-1.022,2.053-1.667,2.446-4.592,3.859-6.684,1.333-1.974,2.421-3.642,3.145-5.921.553-1.743,2.253-3.487,1.544-5.547-.802-2.33-3.542.648-4.502.252-.327-.135-.223-1.485-.599-1.571-1.41-.323-2.691,1.451-4.028,1.877-5.6,1.783-11.357-3.715-15.687,6.848-1.828,4.46,1.012,7.273,4.595,8.792,2.237.948,3.406.597,5.595.082,3.093-.729,5.871-3.223,5.377-6.485-.516-.456-2.356-.235-2.218-1.368.198-1.629,2.145-1.673,3.208-1.39.96.256,1.703,1.498,1.388,3.129ZM1265.207,113.232c-2.215-.671-5.308-.059-6.612,1.424-2.253,8.774-4.85,10.38-8.235,17.709,2.68,1.102,5.154-.373,7.667-.219,3.318.204,6.389.793,9.73.799l30.036.054c.723-.039,6.672-10.445,4.874-10.131-2.332,1.112-4.529.776-5.992-.925-1.364-1.586-2.766,2.872-9.638.587-2.055-2.805-1.221-6.939.539-9.585-2.229-1.319-3.341,1.877-4.548.898-.296-.24-.475-1.122-.797-1.452-1.402-.248-2.394,1.509-3.768,1.541l-9.443.224c-2.039.048-6.173,5.264-6.198,5.319-1.652,3.508.528,7.812,4.424,8.963,2.765.816,11.549-.22,10.805-4.517-.354-2.044-5.213-2.465-2.225-4.014,1.22-.633,2.207-.125,3.181.41.798.439,1.078,1.432,1.312,2.396.773,3.185-1.396,5.046-3.615,6.614-3.845,2.718-7.941,2.87-12.363,1.43-2.935-.956-4.743-2.791-5.094-6.061-.459-4.272,2.42-9.447,5.959-11.466ZM1605.097,119.717c3.492-2.861,5.564-6.432,11.063-6.306-2.84-1.18-6.247-1.141-9.229-.431-3.587.855-7.691,5.671-8.645,2.942-.424-1.213-.533-3.065-1.93-3.519-5.339-1.734-6.606,4.927-9.101,4.677-.636-1.833-1.721-2.967-3.011-3.064-1.789-.135-2.933.053-4.296,1.097-1.386,1.062-2.957,3.453-1.26,4.811,1.269.74,3.261-.216,4.658.392s2.675,2.064,4.285,2.168c5.512.358,13.088.82,17.467-2.768ZM1297.046,113.098c-1.758-.205-3.446-.694-5.356-.159-2.018.565-3.912,5.383-1.932,6.713,4.204,2.824,9.277-6.321,7.288-6.554ZM1315.131,131.007c-.789-.782-1.324-1.273-1.86-1.663-5.314-3.872-1.415-10.767-.01-12.009l4.907-4.342c-1.688-.43-5.087-1.032-6.318.392-2.957,7.21-6.475,12.609-10.785,19.061,2.324.547,13.205.764,14.067-1.439ZM1432.551,132.17c2.562-2.546,3.408-5.606,5.052-8.596,1.582-2.877,5.436-9.42,1.414-11.009-2.006.745-3.073,2.473-2.902,4.61-1.13,3.339-7.762,11.64-8.186,13.889-.349,1.85,3.544,2.177,4.622,1.106ZM1255.063,114.464c-.901-.615-2.85-.916-4.081-1.365-1.401-.511-1.889,1.224-2.484,1.975-.802,1.012-1.76,1.691-1.447,2.681.393,1.241.761,2.257,1.777,2.405,2.381.345,7.074-3.298,6.234-5.695ZM1419.404,113.807l-3.954-.753c-1.664-.317-3.86.675-4.673,2.321-.531,1.075-.642,3.875.316,4.554,2.96,2.251,9.281-3.541,8.311-6.122ZM1428.513,126.133c.953-.95.573-2.439-.163-3.277-2.727-3.106-.228-6.554-4.236-9.955-1.454.869-2.004,2.236-2.075,3.782-.98,1.269-1.022,2.91-1.756,4.17l-6.809,11.685c13.454,1.126,10.845-2.229,15.038-6.405ZM1433.191,113.438c-.357-.818-3.026-.763-3.209.068-.297,1.347-.697,5.996,1.316,6.216,2.046.223,2.648-4.554,1.894-6.284ZM1307.485,114.136c-2.072.123-4.37-.684-6.254.269-1.246.63-2.673,2.869-2.931,4.15s1.61,2.01,2.437,1.949c1.553-.116,6.94-4.652,6.747-6.368ZM1573.665,132.882l9.335-.75c4.849-.39,9.564,1.897,14.706.25-13.996-4.082-18.706-9.004-29.539-17.29-1.478,1.753,3.699,4.884,1.416,9.26-2.856,5.476-6.574,2.004-7.278,2.88-5.832,7.27-8.682-.792-12.322,5.545,3.9-.304,22.901.167,23.681.104ZM1554.487,126.968c.703,1.417,2.724,1.382,3.935.741,2.39-1.265.972-4.575,2.392-5.015.604-.187,1.424.113,1.801.762.928,1.599,2.359,2.093,3.654,1.143,1.359-.996,1.392-2.032.967-3.588-.496-1.816-1.582-1.972-2.888-2.876-1.23-.851-2.21-2.408-4.171-1.28-1.32.759-3.252.831-4.595,1.715-7.233,4.762-8.031,9.222-14.872,14.062,5.337,1.676,9.602-2.376,10.732-7.14.156-.658,1.684-.429,2.089-.151.33.226.541.79.956,1.626ZM1152.342,131.717c1.303.498,2.94-.085,3.79-.989-1.612-1.775-3.208-3.099-3.22-5.493-5.551-3.891-9.749-7.042-16.96-6.147-.126,3.59,9.502,2.324,9.523,4.237.024,2.143-4.169.495-5.549,1.709-1.197,1.053.135,2.315.697,3.109.821,1.159,1.988.755,3.435.681,3.038-.156,1.907-4.396,4.647-3.931,2.336.396-.05,5.416,3.637,6.824ZM1510.943,137.798l11.595-.028c.759-.002,1.575-.329,1.435-.895-.073-.293-.379-.986-.945-1.007l-6.752-.25-40.469-.246-12.701.079c-2.856.018-5.619.141-8.596-.195l-5.48-.619c-1.809-.204-3.617.908-5.492.894l-9.558-.071c-.762-.006-1.506.321-1.78.772-.213.351-.701,1.512.147,1.562,10.644.634,18.501-.369,28.994.059,4.181.171,8.397.463,12.546-.023,4.298-.503,8.347.058,12.649.065,3.968.006,7.747-.557,11.719-.094,4.118.479,8.312.008,12.689-.003ZM1247.603,135.476l-.002,2.55,47.488.03.002-2.55-47.488-.03ZM1326.222,138.045c.879.022,1.346-.807,1.174-1.152-.445-.893-6.099-1.25-6.981-1.254l-21.943-.096c-.625-.003-.578,1.369-.38,1.709s.647.798,1.44.79l18.784-.196,7.907.199ZM1430.56,135.653c-2.678-.048-8.885-1.21-8.537,2.271,3.27-.172,7.769,1.28,8.537-2.271ZM1585.489,137.877c2.341,1.213,10.246.892,8.401-.877-1.584-1.519-2.537,1.107-3.955-1.148l-21.33-.171-33.384.445c-1.376.018-2.584.974-3.783,1.239,3.673.79,6.959.488,10.635.49l43.415.022ZM1420.072,136.263c-.135-.186-.556-.547-1.025-.544l-7.537.045c-.795.005-1.021.543-1.005.967.066,1.82,10.947,1.425,9.567-.468Z" fill="#ebd5b3"/>
        <path d="M1631.896,92.285l-.055,9.418c-9.455,1.416-19.625.849-29.832.837-1.762-.002-3.247-.204-5.01-.162l-4.955.116-12.478.24-5.44.53c-1.932.188-3.277.212-5.203.045l-6.886-.598c-2.169-.188-13.753-.495-15.146.2-2.67,1.333-4.511.282-6.987.016-4.174-.448-8.591-.906-12.864-1.037-2.388-.073-4.422,1.385-7.263.531-6.464-1.943-11.578.754-15.197-.483-1.869-.639-3.294-.376-5.161-.187-2.662.269-5.564-.697-8.317-.095-1.889.413-3.571.749-5.59.558-.491-.046-1.135,1.411-.244,2.241.605.563,1.952.447,1.841,1.714-.072.83-2.516,3.289-2.921,3.438-.592.217-1.031-.481-1.661-.929-1.73-1.23-2.208,1.125-2.903.054-.602-.927-1.369-1.551-1.499-2.566-.364-2.844,2.593-.278,3.61-1.945-.428.7.463-1.84-.774-2.001-1.508-.197-2.856-.063-4.427-.053l-1.002.007-1.008.006h-1.01c-5.868-.007-4.692,1.451-13.484-.635,3.916.929-22.506,1.189-23.992,1.093l-1.03-.067-1.244.05c.059,2.478-2.665,6.001-3.877,5.407-2.114-1.035,1.685-4.6.706-5.425-3.094.169-6.348-.414-9.324.246-1.521.337-2.606.874-4.272.287-2.459-.866-10.187-.412-14.985-.807-1.667-.137-3.454-.554-5.102-.55-1.078.003-15.043.899-15.232,1.149-.168.222,1.385,3.284,1.985,3.56,3.771,1.73,4.423,7.514,6.498,8.778,2.271,1.383,4.788.524,6.961,1.302.728.261.591,2.2-.021,2.384-.75.226-2.228-.026-2.976.068-9.644,1.21-14.399-5.505-20.064-10.398-5.79-5-8.072-6.311-15.427-7.592-2.39-.416-4.251-.409-6.728-.029-8.556,1.309-4.567-1.807-12.477-1.057-2.606.247-5.551.376-8.113.295l-8.757-.276c-2.256-.071-4.023.832-6.106.973-6.962.472-13.851.282-20.834.07-1.529-.046-2.788-1.277-4.666-1.015-2.288.319-4.621,1.145-7.023,1.071-3.966-.123-8.49.756-12.322-.216-3.559-.902-6.478-.473-10.054-.457-3.994.018-7.593-.671-11.714.519-3.32.959-13.36-.555-14.801-.282-2.122.401-4.001-.459-6.07-.461l-38.79-.024c-2.813-.002-4.914,1.478-7.473,2.099-2.897.704-6.808.659-9.737-.077-1.766-.444-2.952-1.098-4.818-1.236-3.388-.251-6.523-1.422-10.034-.646-1.577.349-3.884.904-5.341.206-1.756-.842-2.546.476-3.904.49l-25.834.276-3.042-1.028c-3.247-1.097-23.946,1.023-23.025,1.064-2.341-.103-4.508.503-6.96-.029-2.482-.538-5.368.519-7.746-.365-2.088-.776-3.621-.903-5.857-.36-.736.179-7.136-.636-4.993-1.844,1.483-.836,10.424-.205,12.705-.132l5.352.173c2.193.071,3.48-1.034,5.229-1.22,6.252-.662,12.449-.259,18.729.252,1.731.141,3.557,1.483,5.224.535,1.908-1.085,4.231-1.433,6.412-.688,3.451,1.179,6.544.059,9.908.283l7.574.506,8.469-.367c1.712-.074,2.959-.156,4.746-.474,10.267-1.833,18.473,2.423,23.554.86,8.542-2.627,18.6-.435,29.184-1.397,4.126-.375,7.954.167,12.025.034,9.104-.297,27.957.92,35.02.487l9.034-.554c.57-.488,1.266-.353.68-.833l-1.23.014c-.35.004-.589.041-.893.121l-1.219.319c-.903.236-1.664-.508-3.346-.522l-1.026-.008-1.013-.005c-10.247-.055-11.506-1.945-24.982-.929,3.539-.267-3.961-.206-2.018-.217l-.998.005c-.376.002-.65.08-.991.026l-1.01-.16c-4.985-.792-10.181-.324-15.166-.246l-24.331.382-20.301-.025c-5.178-.006-10.314.621-15.402.046l-6.271-.709c-4.959-.561-10.606.114-15.312,1.156-1.611.357-2.68-.255-4.216-.272l-27.985-.315-7.009.044-14.007.387c-1.619.045-2.954.107-4.567.03-6.662-.319-13.214-.222-19.896-.08-5.747.122-6.692-.342-11.061-.363l-42.885-.199c-2.321-2.139-12.798-.581-16.096.013-4.446.801-20.376-.108-24.762.839-3.613.78-5.883.66-9.48.043-5.821-.999-12.576-.639-18.467-.03-2.063.213-2.84.225-4.899-.058-4.41-.608-9.159-.523-13.637-.458l-26.125.381c-2.475.036-5.136,1.835-7.659.208-1.286-.829-21.043-.167-22.51-.901l-7.285-3.646c-1.836,2.1-4.134,3.68-6.479,3.778-4.822.203-8.328-3.788-8.374-7.529-.052-4.196,3.277-6.96,6.941-8.441,3.341-1.35,7.514-.424,10.481,1.58,4.496,3.037,15.803,2.952,18.524-3.865.655-1.64-2.152-3.146-3.427-2.667-.517.194-.826.268-1.04.232-.858-.144.141-3.197,1.129-3.063,1.777.242,3.211,1.374,4.846,2.025,1.91.761.453,4.026,1.987,3.748,3.097-.562.891-1.305,3.859-.705,2.591.523,5.607-.17,8.009,1.149l5.087,2.793c2.219,1.218,4.631,1.129,7.01-.101,3.756-1.942,3.88-6.899,5.421-5.637.347.284.536.955.333,1.443l-1.038,2.499c-.611,1.471-1.076,2.232-2.306,3.075-1.138.781-2.221,1.986-3.829,2.024-9.306.218-4.079.841-13.946-3.531-1.755-.778-3.165-.263-4.857-.287-9.527-.138-10.325,9.019-23.73,3.97l-4.758-1.793c-4.033-1.519-6.676-1.852-10.26.796-2.645,1.954-3.004,5.632-.448,8.761,1.594,1.952,5.979,1.722,7.409-.667.897-1.497,1.561-2.274,3.031-2.438,1.438-.16,2.008.751,3.275,1.401,8.98,4.615,1.707,1.847,15.479,2.759l7.456.494c13.614.901,5.224-1.439,19.754-.343,8.391.632,10.271-.16,17.509-.197l45.702-.234c4.19-.021,7.907-.437,12.079-.011,5.638.575,11.257-.055,16.927.162,1.701.065,3.365-1.205,4.994-.826,1.66.385,3.196,1.31,5.023.807,4.516-1.244,10.529.816,14.919-.124,2.612-.559,4.66.055,7.183.059,10.785.018,21.488.448,32.213-.192,2.648-.158,4.201-.191,7.03-.076l15.979.65c2.538.103,4.174.861,6.812.346,4.908-.959,24.231-.659,30.369-.505,4.842.122,11.689-.507,14.775.148,2.469.524,4.297,1.306,6.75.236,4.034-1.759,8.843-.232,12.809-.935,3.49-.618,6.328-.93,9.947-.932l17.45-.013c2.405-.002,5.474.203,7.685-.273,2.899-.624,4.373.912,6.709,1.257,5.71.844,11.615.36,17.344.115,1.406-.06,3.034-.817,4.46-.982,10.947-1.272,10.978,2.308,23.143,1.199-2.753-6.285.776-6.987.601-9.164-.059-.735-1.012-1.135-1.379-1.908-.645-1.357.488-2.519,1.057-3.307.775-1.072,1.85-.934,3.205-1.02,1.893-.121,3.557.481,3.916,2.541.061.348.097.669.406.898.189.14.398-.134.752-.507,2.203-.375,5.19-.954,7.201.149,2.802,1.536,4.217,5.045,2.495,7.595-.393.582-3.638,3.483-4.245,1.973-.624-1.551,2.031-1.818,2.076-3.991.027-1.347-.11-2.853-1.6-3.163-3.445-.717-5.414,1.836-7.638,3.645-.885.72-2.179.879-2.257,2.44-.44.382-1.418.062-2.229.566l3.992,3.115,19.848.431c4.478.097,8.569.029,13.069-.009l47.91-.405c2.978-.025,5.872.119,8.688-.422,1.917-.369,3.415-1.748,5.56-1.343,1.606.303,3.058,1.744,4.798,1.752,3.097.013,7.099.876,10.046-.116,3.509-1.182,6.516-2.077,10.256-1.364l5.931,1.13,42.904.068c1.909.003,3.164-.952,5.241.076,1.428.707,3.562-.268,5.131-.231,4.025.093,8.267.806,12.193.137,2.669-.455,4.417-.082,7.085-.004l13.435.391c1.62.047,3.953.679,5.272.397,2.456-.524,4.114-.769,6.536-.611,7.264.472,14.956-.973,22.071.549,2.622.561,3.819,1.367,6.545.238,3.72-1.54,8.515-.517,12.585-.861,1.351-.114,2.342-.607,3.631-.254,4.971,1.361,10.317-.109,15.212.956,2.232.485,3.217.4,5.51.058,6.685-.998,13.561-.093,20.309-.262,6.707-.168,13.134-.243,19.812-.003,1.649.059,2.887.367,4.642.042,4.083-.757,6.002.461,10.633.151l7.793-.523,17.443-.336c1.45-.028,2.558.029,4.031.072l9.752.282,11.117.274ZM1235.81,84.293c.604-1.527-.006-2.865-.766-4.113-1.138.509-1.182,1.378-1.021,2.191s.211,1.885,1.787,1.922ZM1379.804,98.321c4.211-.862,8.201-1.049,12.07-.068,2.561-1.566,5.264-1.07,7.924-.278,3.164.943,6.441.594,9.742.473,2.825-.104,5.703.31,8.519-.234,3.611-.698,6.822-.508,10.425-.032,3.203.423,19.902,1.609,21.86-1.427,1.879-.706-15.369-1.61-12.471-1.616l-43.218.08c-1.731.003-2.907.366-4.719.11-3.478-.492-7.336-.414-10.845-.043-6.724.71-8.227-.364-15.908-.34l-8.366.026-20.215-.456c-1.613-.036-3.556-2.018-5.178-.877-1.06.746-1.936,1.338-3.451,1.347l-27.369.161-3.672.908-16.398.037-3.031-.958-6.992-.15c-.809-.017-1.058.478-1.003.933.244,2.016,9.306,1.142,12.948,1.599,1.349.169,2.425,1.246,4.101,1.058,4.115-.462,8.319.208,12.399-.486,2.186-.372,3.895-.814,6.162-.666,2.206.145,4.547-.244,6.929-.235,5.664.02,11.353.368,16.892-.614,2.137-.379,3.308.306,5.317.358l23.044.598c3.849.1,7.348,1.103,11.175.301.603-.126,9.329,1.306,13.326.488ZM1540.171,99.942c2.923-1.7,5.781-1.409,8.611-.984,11.525,1.731,22.708-.189,34.283-.322l29.01-.333c1.001-.011,1.882-.951,2.57-1.638l-11.556-.358c-2.739-.085-5.28.068-8.051.059l-20.446-.067c-3.313-.011-5.988.384-9.174-.921-.897-.367-2.717.344-3.948-.077-2.694-.923-5.377.637-8.018.686l-11.451.213c-2.704-3.006-3.708.016-10.47-1.008-2.699-.408-5.331.322-8.068-.54-3.982,3.611-8.263.37-12.413,1.036-2.129.342-3.989-.559-6.022-.559l-17.928.005c-2.316,1.292-4.941,1.599-7.132-.077l-22.37.182c-1.076.009-2.162,1.858-3.552,1.362.087,1.157.975,1.771,1.987,1.777l22.472.144c1.741.011,2.804-.568,4.292-.973,2.6-.708,5.498.562,8.23.818,8.273.774,16.246.079,24.512.123,3.912.021,7.575.494,11.462-.068,2.448-.354,4.717.395,7.06.72,1.981.275,3.946-.034,6.11.797ZM1383.411,112.706c-1.836-6.325-7.56-9.882-13.66-11.213.442,1.891,2.264,2.021,3.379,3.064,3.148,2.944,5.803,6.175,10.281,8.149Z" fill="#ebd5b3"/>
        <path d="M486.894,93.929c-8.974-2.059-12.106.362-14.759-.369-3.446-.949-6.441,1.052-7.006-.634-.302-.901.323-1.791,1.442-1.852,8.124-.442,16.075-.454,24.19-.087,7.192.325,5.502-1.363,16.793-.386,7.71.667,19.032-.415,25.98.27,5.645.557,10.936.254,16.526-.556,3.289-.477,6.631.102,9.954-.118,1.025-.068,1.957.555,2.992.563l19.477.154c1.972.016,3.616.195,5.597.029,4.752-.4,9.434-.146,14.23-.012,3.379.094,12.163-.59,13.751-.407,1.319.152,4.727-1.07,9.532-.528l5.49.619c4.784.539,9.471.137,14.282.026,4.31-.099,8.616.581,12.901-.151,3.948-.675,7.781-.256,11.733.287,3.119.429,5.962.163,8.998.086,3.566-.09,19.079-.137,21.588.287l3.954.669c-1.159-.196,17.249-.888,19.85-1.305,1.587-.254,2.66.077,4.21.106l12.341.233c1.086.021,2.037.889,3.13.909l12.686.229c7.588.137,15.051.244,22.754.117,2.667-.044,9.008-6.584,8.918-2.923-.032,1.293.019,2.491.847,3.007,2.303,1.436,5.791-2.15,6.415-5.098,2.161,2.568.271,5.484-2.299,7.028-2.85,1.712-6.233.221-7.772-3.143-1.598,2.111-3.382,2.469-5.443,2.987-6.628,1.665-5.784.431-10.227.554-2.875.08-5.636.831-8.391-1.116-2.217,2.066-4.582.989-7.012.951l-16.976-.266c-3.341-.052-6.945-1.111-10.129-.009-5.01,1.734-5.067-1.497-9.295-.667-2.227.438-4.105.116-6.244.088l-16.868-.222-14.834.049-13.51.123c-2.295.021-4.449-.471-6.797.031-2.792.597-5.714-.048-8.447-.67-3.111-.707-13.271.977-15.834.641-4.27-.56-8.181-1.667-12.61-1.161-1.941.222-4.226-.497-6.044.282-2.341,1.003-4.47.919-6.969,1.022-4.46.184-8.732.975-13.184.352-8.334-1.166-11.039.688-18.845-.093-7.649-.765-11.476.317-18.452-.052l-8.97-.475c-2.109-.112-4.333.762-6.488.302-3.991-.851-2.982,1.789-13.413.332-4.043-.565-11.037.789-13.614.645-6.381-.357-12.742-1.915-19.05-.497-5.113,1.149-5.251,1.158-11.08-.18Z" fill="#ebd5b3"/>
        <path d="M462.468,90.927c1.844,3.516-7.24,2.816-8.344,2.563-1.756-.402-2.975.12-4.684.117l-51.329-.105-5.162.019-61.692.052c-2.56.002-4.729-.19-7.256-.27l-10.762-.341c-2.879-.091-6.143-.718-8.918-.035-2.023.499-3.414-.056-5.349-.194-4.456-.316-8.915-.253-13.381-.098-1.889.066-3.602,1.154-5.557.992-2.531-.21-4.934-1.127-7.478-1.117l-16.052.063c-1.354.005-1.83-.408-1.756-1.605.052-.836.689-1.457,1.901-1.478,4.919-.085,9.913-.301,14.858.073,4.113.311,7.614-.343,11.51-1.043s8.056-.121,11.932-.088c1.356.012,2.468,1.428,4.1,1.027,1.827-.449,3.689.231,5.533.22l21.819-.128c1.813-.011,3.356-.011,5.177.008l17.36.182c3.8,1.491,7.876,1.51,11.68-.003l20.41-.093c5.577-.025,11.01-.76,16.529.055,1.798.266,3.386,1.006,5.044-.522,8.534.79,17.035-.777,25.428.521l6.98,1.079c2.611.404,5.38.151,7.872.716,1.458.33,2.099-.361,3.347-.472,5.344-.477,10.767-.29,16.239-.096Z" fill="#ebd5b3"/>
        <path d="M821.927,122.477c-4.741.527-4.105,3.715-5.666,3.648-.404-.017-1.184-.391-1.372-.924-1.125-3.193-3.746-2.66-5.104-4.168-2.31-2.566,4.085-1.402,5.785-6.781-4.526-1.148-8.215.593-12.213,1.906-5.291,1.738-10.029,3.9-14.914,6.288-1.802.881-5.024.233-6.212-.878-1.788-1.672-1.345-3.855-.225-5.22,1.287-1.568,3.256-2.293,5.209-1.375.377.177.362.673.372.883.067,1.349-2.718.177-3.444,1.07-.422.519-.284,1.665-.036,2.259,1.394,3.336,9.081-2.338,10.795-3.654l4.219-3.239c3.263-2.505,15.399-5.626,18.624-4.432,3.922,1.452,5.808-.672,18.195,6.382,2.295,1.307,6.169,7.057,10.565,6.835,2.071-.104,2.503-2.374,2.302-4.197,1.433-.506,2.284.906,2.572,1.692.449,1.225.061,2.567-1.017,3.427-5.86,4.675-9.065.499-13.112-2.064-3.934-2.491-8.17-3.84-12.551-5.444-2.384-.873-4.982-.356-7.626-.364.609,4.624,5.391,5.139,5.821,6.798.111.429-.297,1.477-.966,1.551ZM816.58,122.502c1.251-.433,1.821-1.612,1.206-2.349-.449-.539-1.189-1.625-2.282-1.442-1.16.194-1.183,1.694-.863,2.505.214.542.939,1.632,1.939,1.286Z" fill="#ebd5b3"/>
        <path d="M903.628,106.921c-10.147-.814-7.935,8.85-21.275,12.52-.91.25-1.532,1.132-2.339,1.449l9.467,5.191c4.773,2.617,17.317,1.306,16.631,1.078.452.15,1.305,1.321.655,1.655-1.353.696-3.106.213-4.757.344-4.58.366-9.291.888-13.64-.447-9.704-2.979-14.841-9.664-22.751-14.236-3.925-2.269-7.442-4.929-11.6-6.919-2.704-1.294-4.96-3.266-8.021-3.928-1.442-.312-2.612-1.197-4.031-1.893,2.033-1.403,3.681-.27,5.478.349,3.303,1.139,21.08,10.471,23.934,14.067,1.286-2.702,3.567-4.713,5.403-7.162,1.36-1.815,2.234-3.586,4.408-4.778,1.91-1.047,4.22-.684,6.106.563,1.492.987,2.79-.152,4.04-.825,1.435-.773,3.188-.029,4.694-.307,2.582-.476,4.847-.345,7.129.941.799.45,1.272,2.4.47,2.336ZM876.224,113.041c-.684.364-2.065,2.357-.925,2.744,2.977,1.012,6.554.255,9.565.298,4.207-1.712,6.884-4.39,9.1-8.07l4.131-2.483c-9.871-2.783-8.152,7.066-11.228,5.961-2.25-.808.132-3.959-1.651-4.743-1.35-.594-3.739,1.292-4.144,2.739-.352,1.257,2.312,4.307.159,4.175-3.957-.242-2.55-1.929-5.006-.621Z" fill="#ebd5b3"/>
        <path d="M.183,99.234c.052-.56.176-1.587.017-2.108l46.2.067c2.988-.845,5.974-1.656,8.982-1.242,2.648.365,4.991.059,7.681-.104,2.809-.17,5.623.714,8.477.245,1.781-.293,3.131.745,4.761.893,12.455,1.132,11.031-2.43,19.375.043,2.238.663,8.165-.435,9.111.647.199.227.316.895-.258.938-3.686.275-7.121.204-10.71.314l-12.254.377c-1.997.061-3.972.44-6.045.468l-11.941.162c-6.121.083-11.786-.758-17.876-.592l-5.695.155c-7.363.2-15.053,1.959-21.922.258l-2.577-.638-15.328.117Z" fill="#ebd5b3"/>
        <path d="M1407.213,77.107c-5.824-1.522-7.488,3.63-13.382,7.305-1.519.947-3.115,1.356-4.52,2.556-.806.688-2.137-.036-2.499-.711-1.269-2.363,4.128-4.064,5.766-6.018,3.251-3.878,1.822-6.136,3.346-7.822-1.202-.429-2.625-.218-3.209-1.294-1.86-3.428.262-8.03,4.39-8.578.795-.106.541,2.527-.485,2.849-.983.308-1.602,2.271-.912,2.762,2.088.266,4.79-1.157,6.647.261,1.21.924.364,3.013.229,4.288,2.121.687,4.2-.019,6.259.2,2.665,2.294,2.856,5.392,1.923,8.669-.539,1.892-2.86,4.737-5.05,3.918-1.716-.641.526-2.625,1.256-3.315,1.127-1.066.963-3.926.242-5.07ZM1399.967,73.344c.302-1.09-.6-1.614-1.194-1.521-1.441.225-1.168,3.764-.858,4.966,1.353-.753,1.652-1.998,2.052-3.445Z" fill="#ebd5b3"/>
        <path d="M.214,114.209c.097-1.279.014-2.852-.029-4.14,4.666-.456,10.938,3.25,15.134,5.744,1.142.679,2.827.693,4.138,1.373,3.941,2.043,11.377,2.913,15.143-.418,2.995-2.649,9.939-9.584,13.859-5.98-4.671.975-7.694,2.685-10.273,6.098-4.177,5.526-8.748,7.132-15.545,5.902-2.777-.502-11.663-4.76-14.065-7.319-.239-.255-.987.159-1.073.355-.392.895,3.11,3.166,1.188,3.169-.475,0-1.214.274-1.616-.005L.214,114.209Z" fill="#ebd5b3"/>
        <path d="M315.903,84.946c1.956-4.252,2.961-2.194,4.387-7.016.36-1.216-.015-2.166-.708-2.965-1.317-1.518-6.098.042-9.005,3.34-1.41,1.6-9.213,7.791-10.393,6.111-.617-.878,5.712-3.862,6.77-12.238.094-.745,1.528-1.8.362-2.659-1.591-1.173-3.836-2.521-4.092-4.838-.163-1.478,1.3-3.352,2.41-4.096.787-.528,1.684-.224,2.104.22,1.449,1.531-2.899,2.579-1.576,4.597,1.968,3.003,5.998-2.113,7.933.812.995,1.504-.149,3.782.568,5.492,1.979.009,4.682-.494,6.35.554,3.29,2.066,3.057,6.112.913,9.048-1.286,1.762-3.203,2.965-4.913,4.463-.423.37-1.246-.531-1.111-.825Z" fill="#ebd5b3"/>
        <path d="M779.669,82.519c-5.044,1.698-8.681,7.325-15.726,2.343-10.949-7.743-12.004-2.11-18.874-.263-4.36,1.172-9.048.414-11.91-2.88-1.992-2.293-3.205-5.553-1.105-8.235,1.09,3.228,1.824,6.403,4.722,8.071,3.128,1.8,7.982.947,9.799-.199,3.852-2.427,7.681-4.132,12.431-3.015.408-3.075,3.636-6.32,5.347-4.776.342.309.632.943.392,1.643-.184.537-1.269.481-1.768.884-1.984,1.599-.949,4.236.556,5.662,2.997,2.84,6.746,3.572,10.494,1.779l7.665-3.668c1.215-.582,2.708-1.276,4.073-1.43,5.914-.668,11.18,4.55,10.203,5.935-1.352,1.917-5.039-5.07-11.337-3.38-1.712.459-3.299.969-4.961,1.529Z" fill="#ebd5b3"/>
        <path d="M29.502,108.735c-.294-1.606-2.492-1.258-3.629-.967-3.045.777.376,8.014-2.464,7.175l-8.744-2.583c-.657-3.296,4.79-1.905,6.847-2.373,1.021-3.485,4.364-5.376,7.995-4.913,5.699.727,8.766-2.678,12.937-1.201.597.211,7.494,3.608,3.776,4.039-.603.07-1.085-.46-1.795-.761-4.274-1.81-9.695-.414-12.159,3.615-.386.631-.07,1.581-.654,1.735-.495.13-1.535.393-1.848-.089-.622-.959.012-2.175-.263-3.677Z" fill="#ebd5b3"/>
        <path d="M1388.827,127.76c-6.17.897-11.946-2.275-14.912-7.584-.716-1.281-1.776-2.061-3.004-3.188,6.123-3.165,10.758,3.269,13.815,7.384,1.112,1.375,2.921,1.173,4.101,3.388Z" fill="#ebd5b3"/>
        <path d="M1621.6,82.96c-.542,1.612-1.748,2.489-2.461,3.804-6.46-5.647,4.411-8.934-4.213-14.938.358-1.363,1.452-2.435,2.634-2.782.917-.269,1.777.411,2.229.747.683.509-.485,2.032-.152,2.51.998,1.432,1.924,2.695,1.226,4.742-1.906,5.59,1.296,4.256.737,5.917Z" fill="#ebd5b3"/>
        <path d="M.211,94.15c-.195-1.167-.023-2.234-.026-3.386,2.574.356,18.406-.836,18.836,1.145.461,2.123-3.458.987-4.787,1.54-2.044.851-4.076,1.048-6.225.118-2.665.92-5.265.565-7.799.582Z" fill="#ebd5b3"/>
        <path d="M1322.406,108.282c-.438-1.541-.735-2.939-.785-4.473,1.074-.326,1.786.23,2.759.274.235-1.161.669-1.759,1.386-1.881,1.405-.239,1.458.725,1.888,1.818.499,1.269,1.537,2.343.375,3.377-2.85,2.535-2.456-1.956-5.623.885Z" fill="#ebd5b3"/>
        <path d="M1131.216,142.233c2.412,3.568-2.63,10.429-3.25,8.036-.47-1.813,1.568-2.174,1.051-5.774-.147-1.025,1.544-3.23,2.199-2.262Z" fill="#ebd5b3"/>
        <path d="M1136.44,150.812c-1.49-1.582-.583-3.808-1.197-5.574-.203-.584-.801-.919-.968-1.242-.304-.586-.306-1.583.659-2.046,3.626,3.045,3.816,11.314,1.507,8.862Z" fill="#ebd5b3"/>
        <path d="M1126.429,145.324c-.024,1.769-2.567,4.261-3.639,2.621-.787-1.204,1.563-5.208,3.444-4.333.325.151.208.734.194,1.712Z" fill="#ebd5b3"/>
        <path d="M1273.205,109.031c-2.971.118.115-3.511.77-4.954.269-.593,1.245-.417,1.57-.173,1.768,1.328-.994,3.514-2.339,5.127Z" fill="#ebd5b3"/>
        <g>
          <path d="M598.087,99.298c-5.626.95-15.449-.936-19.133-1.043l-6.844-.199c-2.956-.086-5.468-.539-8.301.233-1.481.404-2.998,1.241-4.502,1.499-3.268.562-6.885.454-10.201.135-2.539-.245-4.633.038-7.143.041l-35.802.047-3.679-.023-24.89-.003c-2.799,0-5.292-.503-8.119-.004-2.964.523-6.059-.066-8.919-.809-2.277-.592-4.328.33-6.519.441l-7.507.379c-7.149.361-6.779-.396-14.041-.042-5.451.266-10.812.187-16.235-.029l-10.018-.399c-4.691-.187-9.346.664-14.174-.565-2.226-.567-4.458.564-6.528.616l-6.933.175c-3.118.078-5.994.523-9.112.072-3.48-.504-8.568.74-9.234-.941-.165-.418-.02-1.535.784-1.589l6.423-.432c-.306.021,9.585.331,13.569.015l6.178-.491c9.167-.728,6.953.129,14.938.665,5.303.356,10.517.087,15.912.146,2.605.028,5.017-.965,7.476-1.379,1.995-.335,3.701,1.23,5.563,1.27,4.146.089,22.114.47,24.711-.656,2.041-.884,3.424.619,5.311.621l62.388.071c1.715.002,21.041-.086,20.553.124l2.491-1.076c1.92-.829,11.543,1.209,15.765-.006,1.496-.43,3.595-.872,5.216-.708l5.509.557c3.477.352,6.878.026,10.417.002,7.146-.048,14.484.833,21.597-.295,5.054-.801,9.328-1.319,14.524-.776,2.163.226,4.255-.148,6.642.492,4.357,1.169,9.162-.23,13.585.565,1.39.25,2.304-.092,3.493-.537,2.499-.936,5.172.062,7.739.209l6.045.347,20.942.205,2.049,1.289c-1.051-.661,12.1.714,16.694-1.065,4.837-1.874,8.785,2.242,12.351.6,1.159-.534,2.25-1.316,3.858-.788,3.431,1.127,7.385,1.337,10.918.195,2.238-.724,3.438.459,5.252.505,7.812.196,15.99.871,23.694-.199,2.932-.407,4.534.038,7.325.076l38.142.514c.406.005.625.453.677.641.301,1.078-5.795,1.216-7.988,2.217-2.3,1.05-4.492.717-6.785,1.252-2.43.568-4.569,2.762-7.509,2.194-.177-1.531,1.717-2.514,3.309-2.517,2.119-.004,3.83-1.864,3.821-1.725.148-2.353-12.207,1.52-17.525.494-2.73-.527-5.48.016-8.204.08-2.641.062-5.184-.857-7.727-.488-2.463.358-13.619.492-15.707.06-2.976-.616-5.268-.375-8.187-.054-4.03.443-8.324.336-12.465.081l-9.974-.613c-2.675-.164-4.657-.663-7.362.452-1.103.454-3.342,1.231-4.549,1.025l-5.855-.998c-2.425-.413-5.056-.867-7.475-.578-8.361.998-18.717-.64-26.699-.463-3.771.083-6.901.558-10.567-.443-1.575-.43-17.175-.327-20.354-.2-1.846.074-3.413.77-5.297-.027-1.924-.814-3.765.597-5.588,1.046-4.01.986-8.191-.168-12.203.509Z" fill="#ebd5b3"/>
          <path d="M1069.056,100.031l-19.478.104c-2.146.011-2.46,2.192-11.578-1.055-5.938,1.664-14.574-.326-20.681,1.383-1.457.408-2.266.429-3.84.394l-13.838-.311c-3.396-.076-6.619.382-10.148-.297-2.906-.559-5.991.112-8.987-.15-4.408-.385-8.706-.657-13.088-.09-3.892.504-7.942-.418-11.736.36-3.414.7-6.302.679-9.653.524-2.444-.114-4.277.425-6.862-.402-2.7-.863-6.329-.478-9.281-.463l-17.332.087-3.066,1.088-33.262-.227c-5.317-.036-10.385-.488-15.666.27-.947.136-16.399-2.752-19.535-2.171-.163,3.322-8.043.912-9.314.383-.667-.278.16-1.81.922-1.824l21.86-.426c5.138,3.184,9.288-2.066,18.293.809,2.305-.872,4.286.383,6.418.483l5.241.245c1.67.078,2.983.025,4.571-.031l8.519-.303c3.106-.111,6.062.787,9.088-.182,6.892-2.206,15.555.319,20.472-.392,4.238-.613,8.456.072,12.739-.309,9.327-.829,17.056.388,22.767-.1,4.78-.409,9.572-.192,14.386-.095,1.846.037,3.424.557,5.282.157,4.044-.87,8.16.216,12.24.058,3.145-.122,5.899-.516,9.051-.005,10.861,1.761,12.9-.125,14.45-.133l36.829-.18c5.096,3.277,14.596-1.966,14.216,2.803Z" fill="#ebd5b3"/>
          <path d="M688.03,125.309c-.052,2.728,5.798-1.653,6.978-2.933.879.797.543,1.739.508,2.904,2.021.755,3.959-.396,6.132-1.505.976,1.788-.595,3.131-2.113,3.824-2.055.938-4.195.105-6.327.22-2.17.116-4.384.774-6.519.046-3.809-1.297-4.09,4.089-15.958.047-.393-.134-.479-.523-.622-.599-.22-.117.24-.971.614-.959,4.847.156,8.474-2.965,10.87-6.914,1.691-2.787,10.96-8.945,9.71-7.216.291-.402.175-.459-.066-.678-.388-.352-.892.218-1.234.145-8.294-1.785-16.269.567-22.947,5.428-8.905,6.483-8.847,8.63-20.775,12.258-4.24,1.29-8.023,1.401-12.327-.151-1.52-.548-3.179-.075-4.443-1.723-1.094-1.425-2.345-2.643-1.935-4.61.313-1.503.815-3.343,2.644-4.109.51-.213,1.674.262,1.771.86-.966,1.294-2.466,3.044-1.679,4.687,1.429,2.983,4.803,3.199,7.658,3.341,15.906.794,20.582-7.826,30.757-14.284,5.214-3.309,15.738-7.259,21.791-5.616l7.511,2.04c3.114.846,6.06,2.348,8.535,4.307,2.007,1.589,4.172,2.362,6.313,3.69l6.767,4.197c2.733,1.695,5.794,2.572,8.657,4.243,1.452.847,3.61.047,5.245.296,4.357.665,8.94-.657,8.142,1.006-.256.533-.78.195-1.168.342-4.891,1.851-9.577,1.465-14.405.084-2.186-.625-4.145-.867-6.062-1.956-5.282-3-10.489-5.674-15.252-9.585-1.772-1.455-4.48-1.804-6.344-.945-.926.427-1.352,1.329-1.503,1.902-.413,1.577,2.762,4.185,2.812,4.673.123,1.214-1.589.392-2.138.034-4.04-2.634-1.218-4.949-2.382-6.885-1.76-2.928-9.09,1.158-11.242,5.297-1.058,2.035-2.517,3.443-3.386,5.74,3.101-.787,5.073-3.001,7.983-3.98,1.313-.442-.552,2.128-.57,3.036Z" fill="#ebd5b3"/>
          <path d="M744.368,127.51c-3.631-1.35,7.874-4.33,6.866-5.656l-8.553-.545c-2.448-.156-5.006-1.923-7.083-3.363-4.366-3.028-7.071-10.803-14.021-6.659-1.705-2.56.67-1.891,3.881-5.147,2.255-2.287,11.42-1.71,13.957-.286.567.318,1.622,1.986,2.368,1.15,1.452-1.627,2.639-3.198,4.552-3.378,2.28-.215,4.372.573,5.746,2.452,2.816,3.849,2.868-1.935,10.142,5.002,1.331-.575,2.538-1.64,3.705-2.597,2.138-1.753,4.627-2.894,6.963-4.476.889-.602,2.3-.606,3.218.245-2.8,1.526-5.394,2.821-7.42,5.063-1.677,1.857-3.629,3.298-5.459,5.031-1.444,1.367-2.71,2.883-4.117,4.368-3.812,4.023-8.297,7.107-13.659,8.887-.363.121-.891-.017-1.087-.09ZM751.173,118.202l6.132-2.83c1.042-.481,2.813-1.887,2.365-3.246-.587-1.781-3.752-2.711-5.138-1.6-4.204,3.369-1.535-2-5.494-3.164-1.234-.363-2.495-.069-3.335.917-3.186,3.744,1.37,6.641-1.907,6.833-1.513.089-3.457-6.019-6.625-7.141-2.458-.87-5.375-.36-8.39-.118,2.458,2.183,4.929,3.7,6.79,6.182,3.056,4.078,11.736,5.95,15.602,4.166Z" fill="#ebd5b3"/>
          <path d="M635.31,103.465c-2.591-1.041-4.825-1.855-7.289-.504,8.061,4.77,4.919,2.094,10.271,8.421,2.495,2.949,9.756,3.177,13.306,2.852,6.036-.552,11.581-2.344,16.426-6.049.395-.302,1.339.058,1.466.344,1.417,3.177-11.047,7.007-13.494,7.499-4,.805-8.222.802-12.26.274-3.241-.424-6.425-2.53-8.458-4.888-8.954-10.383-14.428-4.053-16.764-7.512-.488-.722-.726-1.799-.234-2.477,1.094-1.509,3.687,3.598,7.294.794,1.62-1.259,3.107-.957,4.992-1.085,4.435-.302,8.682.412,12.081,3.761,1.981-.561,3.424-1.907,5.447-2.344,1.578-.341,3.878,2.2,4.665,2.129,1.089-.097,3.713-3.15,7.304-1.903,3.169,1.101,4.362,4.49,3.182,5.246-.921.589-2.595-3.076-4.933-2.889-3.841.307-3.196,2.117-5.065,2.504-1.584.328-2.373-3.791-4.681-3.121-4.778,1.388-1.691,4.582-4.368,5.529-2.368.838-.336-3.144-8.888-6.58Z" fill="#ebd5b3"/>
          <path d="M613.035,108.277c-1.259-.093-2.401-.891-3.991-.805-1.169.063-1.933-2.194-1.765-3.112.128-.701,1.086-.72,1.5-.733.664-.021,1.098.489,1.646,1.08.374-1.36.263-2.566,1.293-3.299,1.822-1.298,2.264,2.801,2.56,3.006.266.184,1.281-.463,1.528.033.618,1.24-1.221,3.945-2.77,3.83Z" fill="#ebd5b3"/>
          <path d="M390.345,106.102c-.813-.248-1.395-1.015-2.037-1.014-.468,0-1.264,1.376-1.774,1.07-1.563-.938-1.066-3.725-.162-5.057,1.079.347.865,1.266,1.614,1.649.41-1.577.968-2.821,2.502-2.497l1.087,2.882c.249.66.681,1.171.543,1.772-.116.506-.69,1.526-1.773,1.196Z" fill="#ebd5b3"/>
          <path d="M561.697,104.351c-.789,1.667-1.653,3.305-2.94,3.226-.809-.05-.944-1.064-.564-1.884l2.121-4.584c1.705.718,1.992,1.954,1.383,3.242Z" fill="#ebd5b3"/>
          <path d="M336.656,107.438c-2.075-.291,1.28-5.05,1.696-5.164.726-.2,1.294-.023,1.756.894-.704,1.684-1.51,3.093-3.452,4.271Z" fill="#ebd5b3"/>
        </g>
      </g>
    </g>
    <path d="M425.032,0c.025.058.039.117.057.176-.003-.034-.018-.087-.057-.176Z" fill="#0f141f"/>
    <g>
      <path d="M196.894,136.357l-8.921-.051c-10.479-.06-19.383.049-29.692-.275.487-1.504,1.807-2.506,3.453-2.259,2.513.378,4.759.123,7.324.131l27.837.091v-2.525l-20.964-.111-14.306-.015c1.246-4.34,3.789-7.88,6.446-11.238,1.452-1.835,1.274-6.975,6.738-8.36,1.343-.34,2.266,1.209,2.713,1.952.9,1.494-.896,5.169-1.673,5.323-1.906.38-4.198-1.386-5.208.606-.303.597-.08,1.736.712,2.292,4.197,2.952,8.934-3.718,10.691-6.986.764-1.419,2.671-3.534,4.482-2.557,2.16,1.165,1.705,5.086-.385,6.031-1.276.577-2.604-.151-3.735.455-.88.471-.702,1.922-.318,2.686.262.52,1.199,1.146,2.099,1.073,4.362-.354,6.944-3.886,7.126-7.978.156-3.503-1.656-6.294-5.359-6.633.424-1.081.715-1.881.507-2.581.043.448-2.69-3.419-2.757-3.445-3.216-1.225-1.633,2.38-5.417,2.699l-.575,3.589c-2.332-.366-4.122.308-5.804,1.631-1.163.915-1.912-.769-2.707-1.214-2.043-1.143-5.316.435-5.434,2.705,1.055.455,2.4-.135,3.276.382,1.785,1.055.319,2.776.065,4.052-.474,2.374-5.001,10.093-6.455,12.667-.865,1.531-2.148,3.551-4.188,2.277-1.706-1.065,4.993-3.911,4.518-9.463-.101-1.182-.82-2.35-1.615-2.56-1.143-.302-2.164.155-3.014.977-.484.468-.736.964-.487,1.547.123.288,1.056.003,1.393.354,1.084,1.132.789,3.565-.383,4.517-2.353,1.911-4.724,3.216-7.615,2.709-2.49-.436-5.066-1.559-6.582-4.386-1.169-2.179-.144-6.327,1.877-7.901,1.217-.947,2.026-2.363,3.324-2.706,6.983-1.044,9.577,1.951,15.209-4.73-1.63-2.951-3.763,1.663-5.397,1.571-1.464-.083-3.507.515-4.905-.149-6.508-3.089-8.695-2.115-16.366-.676-10.153,1.905-14.194-5.155-25.649,1.612-.302.591.384,1.389.743,1.156.344-.223.979.016,1.423-.309,1.209-.885,2.474-1.802,3.947-.827-2.98,3.387-4.066,8.208-.429,10.307,4.36,2.515,6.741-4.405,9.523-.424,1.973,2.824,5.238-.566,5.951-.113.231.147.525.925.277,1.327l-3.597,5.83c-1.064,1.724-2.222,3.076-4.427,3.052l-12.235-.136c-3.844-.043-7.648.659-11.551-.061-4.206-.777-8.37.251-12.673.198-3.009-.037-5.914-.613-9.006-.343-.007-2.6,1.826-4.114,3.039-6.034,2.305-3.648,3.346-7.871,5.039-11.953,2.192-.948,4.508-1.2,6.95-1.571-.575,1.543-2.276,1.79-3.058,3.011-2.566,4.011-5.129,8.035-1.675,13.205,1.871,2.801,5.271,2.692,8.146,2.84,3.163.163,5.105-.435,7.528-2.093,1.61-1.102,3.05-1.688,3.882-3.736.602-1.482.889-2.542.024-4.17-.832-1.567-1.842-2.447-3.94-2.019-.812.166-1.382.483-1.463,1.214-.236,2.12,2.644.831,3.165,3.055.253,1.077-1.632,4.169-4.151,4.704-3.304.702-7.099.947-9.994-1.017-2.099-1.424-2.106-4.152-2.027-6.631.081-2.56,5.323-7.726,9.019-6.721,4.79,1.303,9.847-.29,12.654-4.327-2.042-1.089-2.825.994-4.265,1.592-2.53,1.051-6.231.767-8.758-.301-2.745-1.159-4.87-1.047-7.708-.697-9.784,1.205-12.935-1.118-17.124-1.151-4.129-.033-8.309-.401-12.44.159-.86,1.055-1.516,2.773-3.06,3.55,2.36,2.128,4.73-1.8,5.692-.123.357.622-.051,1.074-.541,1.634-1.711,1.955-2.428,6.714.815,8.566,2.983,1.704,7.509-2.004,7.564-2.008,2.264-.177,2.387,3.346,7.298,1.145,1.034,2.45-.995,4.029-1.807,5.932-2.412,5.653-8.88,2.519-12.91,1.766-2.507-.469-4.418-1.016-6.625-2.164-.977-.508-1.936-1.037-2.886-1.576v4.243c.994.383,1.983.792,2.829,1.567-.973.195-1.911.254-2.829.255v2.557c1.057.009,1.969.019,2.682.029l7.439.109c2.572.038,5.637-.896,7.893.111.865.736-.784,2.203-1.817,2.202l-14.305-.006-1.893.028v3.032l7.123.023c.556.002,6.271-1.17,5.514,1.101-.38,1.143-1.455,1.577-2.134,2.426-5.295,6.618-9.315,5.598-7.973,10.012,5.693-4.121,10.454-8.378,14.964-13.582l28.563.292c1.913.02,3.253.462,5.249.089,3.983-.744,8.185-.077,12.331-.376.444.417.046.696-.145.993-2.388,3.702-5.402,6.611-8.925,9.129-1.226.877-1.831,2.438-3.334,3.211-.64.329-4.223,3.353-3.94,3.973.785,1.723,4.332-1.281,3.996-1.047l4.127-2.862c4.98-3.453,8.501-8.638,12.82-13.36,1.824-.912,4.143.164,6.225-.465,2.348-.709,4.386-.014,6.692.014l15.385.188c.494.006.911.289,1.388.381.504.097-.023.44-.244.638-3.671,4.662-8.508,8.096-12.124,12.78-.119.155-7.6,6.996-3.508,5.988,3.572-.88,8.213-7.263,10.33-9.186,3.16-2.871,4.948-6.932,8.316-9.673,3.007-2.447,12.221.655,19.836-1.097,2.374-.546,4.27-.075,6.635-.038l12.997.203c.553.009,1.091.035,1.63.059v-2.812ZM121.132,119.096c-1.166.489-2.108.929-3.279.094-2.489-1.776-.367-5.566,1.511-7.51,1.905-.112,3.901-.422,5.641.218,1.683.62-.377,5.731-3.874,7.197ZM73.419,113.859c-.529,3.011-3.355,5.785-6.446,5.492-1.297-.123-2.39-2.555-2.173-3.567.414-1.926,1.848-3.179,3.049-4.538,2.372-.227,4.521-.211,6.782.007.321,1.116.041,1.889-1.212,2.606ZM76.878,118.361c-1.423-.847-.975-3.801.15-5.014,1.304-1.407,5.552-1.352,6.035,1.038.466,2.304-3.883,5.346-6.184,3.976ZM119.517,136.342l-15.46.183c-1.754.021-3.085.283-4.898.232l-22.737-.64c-.979-.028-.156-1.258.135-1.596.496-.575,1.358-.537,2.128-.518l7.47.193c1.942.05,3.631-.255,5.676.162,1.487.303,3.233-.874,4.794-.23,1.925.794,3.703.002,5.624-.008l22.036-.113c-.48,2.691-2.828,2.311-4.767,2.334ZM127.754,118.795c-1.705-1.197.432-5.01,1.653-5.406,1.998-.648,4.045-.114,6.348-.185-.624,2.686-5.62,7.262-8.001,5.591ZM132.809,125.162c2.688-3.895,4.582-7.947,6.87-12.121,1.052-1.919,4.535-2.078,6.184-1.582-.306,2.094-2.286,2.349-3.108,3.666l-3.067,4.92c-.839,1.346-.797,4.619.119,5.925,1.285,1.833,3.36,2.617,4.199,5.102-2.228.237-13.124.685-14.03-.035-.495-.394,2.833-5.875,2.833-5.875ZM155.613,135.978l-15.389.192c-4.88.061-9.532.49-14.42.198.158-1.863,1.89-3.345,3.904-3.322,2.674.031,5.381-.345,7.985.141,8.966,1.672,10.487-1.046,19.188-.032.648.558-.429,2.812-1.268,2.823Z" fill="#ebd5b3"/>
      <path d="M196.894,155.835c-.22.184-.262.392-.051.834.01.021.029.043.051.064v-.898Z" fill="#ebd5b3"/>
    </g>
  </g>
</svg>